<?xml version="1.0" encoding="UTF-8" standalone="no"?>
<!-- Generator: Adobe Illustrator 16.0.3, SVG Export Plug-In . SVG Version: 6.00 Build 0)  -->

<svg
   version="1.1"
   id="Layer_1"
   x="0px"
   y="0px"
   width="151.416px"
   height="98px"
   viewBox="0 0 151.416 98"
   enable-background="new 0 0 151.416 98"
   xml:space="preserve"
   sodipodi:docname="ap_logo_he.svg"
   inkscape:version="1.1.2 (0a00cf5339, 2022-02-04)"
   xmlns:inkscape="http://www.inkscape.org/namespaces/inkscape"
   xmlns:sodipodi="http://sodipodi.sourceforge.net/DTD/sodipodi-0.dtd"
   xmlns="http://www.w3.org/2000/svg"
   xmlns:svg="http://www.w3.org/2000/svg"
   xmlns:i="&amp;ns_ai;"><defs
   id="defs240423">
	
	
</defs><sodipodi:namedview
   id="namedview240421"
   pagecolor="#ffffff"
   bordercolor="#666666"
   borderopacity="1.0"
   inkscape:pageshadow="2"
   inkscape:pageopacity="0.0"
   inkscape:pagecheckerboard="0"
   showgrid="false"
   inkscape:zoom="5.7755102"
   inkscape:cx="76.789753"
   inkscape:cy="48.913428"
   inkscape:window-width="1462"
   inkscape:window-height="800"
   inkscape:window-x="0"
   inkscape:window-y="0"
   inkscape:window-maximized="1"
   inkscape:current-layer="Layer_1" />
<g
   i:extraneous="self"
   id="g240416">
		<g
   id="g240244">
			<path
   fill="#101010"
   d="M 7.274,73.683 H 6.488 v -1.005 h 2.886 c 0.796,0 1.367,0.167 1.714,0.507 0.347,0.334 0.519,0.889 0.519,1.665 v 2.973 h -1.123 v -2.955 c 0,-0.443 -0.089,-0.75 -0.271,-0.926 C 10.033,73.767 9.73,73.683 9.307,73.683 H 8.393 v 2.173 c 0,0.48 -0.052,0.865 -0.162,1.146 -0.11,0.281 -0.279,0.491 -0.508,0.627 -0.229,0.125 -0.562,0.193 -0.999,0.193 H 6.442 v -1.005 h 0.071 c 0.192,0 0.344,-0.034 0.455,-0.101 0.11,-0.074 0.189,-0.182 0.237,-0.332 0.046,-0.146 0.069,-0.375 0.069,-0.676 z"
   id="path240218" />
			<path
   fill="#101010"
   d="m 12.834,72.678 h 1.12 v 2.731 h -1.12 z"
   id="path240220" />
			<path
   fill="#101010"
   d="m 17.65,72.678 h 1.144 l -0.125,1.419 c -0.034,0.389 -0.095,0.696 -0.187,0.924 -0.091,0.226 -0.219,0.403 -0.384,0.53 -0.163,0.125 -0.424,0.232 -0.78,0.321 l -0.623,0.143 0.17,0.852 h 0.101 c 0.689,0 1.224,-0.06 1.6,-0.175 0.375,-0.12 0.656,-0.31 0.839,-0.574 0.185,-0.264 0.306,-0.665 0.367,-1.205 l 0.261,-2.234 h 1.157 l -0.265,2.206 c -0.085,0.711 -0.22,1.248 -0.398,1.604 -0.179,0.358 -0.438,0.632 -0.78,0.827 -0.337,0.192 -0.803,0.332 -1.393,0.418 -0.587,0.088 -1.412,0.135 -2.47,0.135 L 14.916,72.68 h 1.171 l 0.452,2.482 0.303,-0.06 c 0.187,-0.038 0.326,-0.101 0.416,-0.186 0.091,-0.089 0.158,-0.217 0.205,-0.39 0.048,-0.173 0.088,-0.479 0.125,-0.924 z"
   id="path240222" />
			<path
   fill="#101010"
   d="m 25.452,74.992 c 0,-0.435 -0.101,-0.768 -0.302,-0.984 -0.203,-0.221 -0.521,-0.325 -0.956,-0.325 h -0.957 v 1.11 h 1.007 v 1.003 h -2.14 v -3.118 h 2.1 c 0.813,0 1.411,0.188 1.798,0.568 0.387,0.378 0.58,0.966 0.58,1.764 v 0.344 c 0,1.646 -0.847,2.469 -2.54,2.469 H 22.15 v -1.005 h 1.865 c 0.956,0 1.436,-0.489 1.436,-1.475 v -0.351 z"
   id="path240224" />
			<path
   fill="#101010"
   d="m 27.77,72.678 h 1.12 v 5.145 h -1.12 z"
   id="path240226" />
			<path
   fill="#101010"
   d="m 33.751,74.976 c 0,-0.462 -0.089,-0.792 -0.266,-0.996 -0.177,-0.199 -0.486,-0.297 -0.928,-0.297 H 31.45 v 4.14 h -1.121 v -5.145 h 2.228 c 0.818,0 1.409,0.167 1.771,0.509 0.365,0.338 0.546,0.89 0.546,1.656 v 2.979 H 33.75 v -2.846 z"
   id="path240228" />
			<path
   fill="#101010"
   d="m 40.621,77.822 h -1.126 v -2.988 c 0,-0.422 -0.089,-0.719 -0.268,-0.896 -0.181,-0.172 -0.493,-0.256 -0.938,-0.256 h -2.101 v -1.005 h 2.172 c 0.815,0 1.396,0.164 1.741,0.506 0.347,0.333 0.521,0.886 0.521,1.659 v 2.98 z m -3.232,0 H 36.27 v -3.127 h 1.119 z"
   id="path240230" />
			<path
   fill="#101010"
   d="m 48.716,77.822 h -1.123 v -2.988 c 0,-0.422 -0.09,-0.719 -0.27,-0.896 -0.18,-0.172 -0.495,-0.256 -0.938,-0.256 h -2.101 v -1.005 h 2.172 c 0.814,0 1.395,0.164 1.742,0.506 0.346,0.333 0.519,0.886 0.519,1.659 v 2.98 z m -3.23,0 h -1.119 v -3.127 h 1.119 z"
   id="path240232" />
			<path
   fill="#101010"
   d="m 52.372,77.822 h -2.681 v -1.005 h 1.563 V 74.92 c 0,-0.371 -0.025,-0.64 -0.077,-0.797 -0.049,-0.161 -0.132,-0.272 -0.248,-0.343 -0.117,-0.063 -0.286,-0.098 -0.51,-0.098 h -0.494 v -1.005 h 0.707 c 0.475,0 0.83,0.065 1.063,0.188 0.234,0.13 0.408,0.339 0.515,0.629 0.109,0.287 0.161,0.695 0.161,1.209 v 3.119 z"
   id="path240234" />
			<path
   fill="#101010"
   d="m 57.281,75.354 c 0,0.816 -0.21,1.434 -0.631,1.847 -0.422,0.418 -1.051,0.622 -1.888,0.622 h -1.376 v -1.005 h 1.313 c 0.494,0 0.861,-0.12 1.1,-0.37 0.238,-0.25 0.357,-0.624 0.357,-1.137 V 75.2 c 0,-0.518 -0.12,-0.9 -0.357,-1.147 -0.238,-0.246 -0.598,-0.37 -1.082,-0.37 h -1.331 v -1.005 h 1.434 c 1.642,0 2.461,0.822 2.461,2.463 z"
   id="path240236" />
			<path
   fill="#101010"
   d="m 58.472,72.678 h 1.119 v 5.145 h -1.119 z"
   id="path240238" />
			<path
   fill="#101010"
   d="M 61.399,73.683 H 60.61 v -1.005 h 2.887 c 0.794,0 1.366,0.167 1.713,0.507 0.347,0.334 0.521,0.889 0.521,1.665 v 2.973 h -1.123 v -2.955 c 0,-0.443 -0.09,-0.75 -0.271,-0.926 -0.178,-0.175 -0.482,-0.259 -0.907,-0.259 h -0.913 v 2.173 c 0,0.48 -0.055,0.865 -0.164,1.146 -0.109,0.281 -0.278,0.491 -0.507,0.627 -0.23,0.125 -0.564,0.193 -0.999,0.193 h -0.282 v -1.005 h 0.071 c 0.192,0 0.345,-0.034 0.455,-0.101 0.111,-0.074 0.189,-0.182 0.237,-0.332 0.046,-0.146 0.071,-0.375 0.071,-0.676 z"
   id="path240240" />
			<path
   fill="#101010"
   d="m 71.47,77.822 h -1.123 v -2.988 c 0,-0.422 -0.09,-0.719 -0.27,-0.896 -0.18,-0.172 -0.494,-0.256 -0.939,-0.256 h -2.1 v -1.005 h 2.171 c 0.815,0 1.395,0.164 1.743,0.506 0.346,0.333 0.518,0.886 0.518,1.659 z m -3.23,0 h -1.119 v -3.127 h 1.119 z"
   id="path240242" />
		</g>
		<g
   id="g240252">
			<path
   fill="#101010"
   d="m 60.87,67.923 c 0,-0.219 0.033,-0.445 0.097,-0.684 0.065,-0.237 0.151,-0.421 0.256,-0.547 h -0.627 v -0.804 h 2.3 c 0.666,0 1.147,0.139 1.445,0.421 0.299,0.279 0.451,0.732 0.451,1.354 v 0.264 c 0,0.706 -0.171,1.239 -0.512,1.6 -0.34,0.359 -0.841,0.539 -1.503,0.539 -0.649,0 -1.129,-0.17 -1.441,-0.508 -0.311,-0.34 -0.466,-0.852 -0.466,-1.532 z m 1.131,-1.231 c -0.135,0.23 -0.202,0.623 -0.202,1.18 v 0.146 c 0,0.832 0.332,1.25 0.997,1.25 0.371,0 0.641,-0.107 0.807,-0.322 0.167,-0.213 0.25,-0.563 0.25,-1.043 v -0.245 c 0,-0.347 -0.08,-0.592 -0.24,-0.742 -0.16,-0.152 -0.421,-0.224 -0.782,-0.224 z"
   id="path240246" />
			<path
   fill="#101010"
   d="m 67.548,69.999 h -2.144 v -0.802 h 1.25 V 67.68 c 0,-0.298 -0.021,-0.512 -0.061,-0.637 -0.039,-0.128 -0.105,-0.219 -0.2,-0.274 -0.09,-0.051 -0.227,-0.077 -0.405,-0.077 h -0.395 v -0.804 h 0.563 c 0.38,0 0.664,0.052 0.852,0.151 0.187,0.103 0.324,0.27 0.411,0.503 0.086,0.229 0.128,0.555 0.128,0.965 v 2.492 z"
   id="path240248" />
			<path
   fill="#101010"
   d="m 71.47,68.026 c 0,0.653 -0.168,1.146 -0.505,1.476 -0.337,0.333 -0.839,0.497 -1.51,0.497 h -1.099 v -0.802 h 1.05 c 0.395,0 0.688,-0.098 0.878,-0.298 0.189,-0.198 0.284,-0.498 0.284,-0.906 v -0.09 c 0,-0.413 -0.095,-0.719 -0.284,-0.916 -0.191,-0.197 -0.479,-0.295 -0.864,-0.295 h -1.064 v -0.804 h 1.146 c 1.313,0 1.968,0.658 1.968,1.968 z"
   id="path240250" />
		</g>
		<g
   id="g240276">
			<g
   id="g240262">
				<g
   id="g240256">
					<path
   fill="#101010"
   d="m 20.429,33.109 c 0,0 0.002,-0.005 0.007,-0.014 0.187,-0.039 0.264,-0.163 0.307,-0.219 0.688,-1.102 0.873,-2.216 0.817,-3.208 0.055,-0.992 -0.129,-2.106 -0.817,-3.208 -0.043,-0.057 -0.121,-0.182 -0.307,-0.221 -0.004,-0.007 -0.007,-0.012 -0.007,-0.012 l -0.014,0.008 c -0.206,-0.031 -0.545,0.039 -1.128,0.421 -0.712,0.468 -2.959,2.333 -2.959,2.333 0,0 -0.789,0.728 0,1.358 0,0 2.325,1.865 3.04,2.333 0.581,0.378 0.842,0.455 1.048,0.42 z"
   id="path240254" />
				</g>
				<g
   id="g240260">
					<path
   fill="#101010"
   d="m 20.798,32.792 c 0,0 1.741,-2.597 0.122,-6.02"
   id="path240258" />
				</g>
			</g>
			<g
   id="g240272">
				<g
   id="g240266">
					<path
   fill="#101010"
   d="m 11.493,33.109 c 0,0 -0.003,-0.005 -0.007,-0.014 -0.187,-0.039 -0.264,-0.163 -0.307,-0.219 -0.688,-1.102 -0.873,-2.216 -0.817,-3.208 -0.056,-0.992 0.129,-2.106 0.817,-3.208 0.043,-0.057 0.121,-0.182 0.307,-0.221 0.004,-0.007 0.007,-0.012 0.007,-0.012 l 0.014,0.008 c 0.206,-0.031 0.544,0.039 1.128,0.421 0.712,0.468 2.959,2.333 2.959,2.333 0,0 0.79,0.728 0,1.358 0,0 -2.324,1.865 -3.039,2.333 -0.581,0.378 -0.842,0.455 -1.048,0.42 z"
   id="path240264" />
				</g>
				<g
   id="g240270">
					<path
   fill="#101010"
   d="m 11.124,32.792 c 0,0 -1.741,-2.597 -0.122,-6.02"
   id="path240268" />
				</g>
			</g>
			<circle
   fill="#101010"
   cx="16.077999"
   cy="29.565001"
   r="1.54"
   id="circle240274" />
		</g>
		<g
   id="g240300">
			<path
   fill="#101010"
   d="m 7.081,86.998 c 0.659,-0.246 1.226,-0.555 1.7,-0.931 0.473,-0.373 0.833,-0.783 1.081,-1.225 0.246,-0.442 0.371,-0.89 0.371,-1.346 0,-0.757 -0.405,-1.136 -1.213,-1.136 H 6.442 v -3.15 h 0.954 v 2.269 h 1.722 c 1.385,0 2.077,0.616 2.077,1.852 0,1.009 -0.372,1.938 -1.114,2.789 -0.743,0.851 -1.742,1.504 -3,1.951 z"
   id="path240278" />
			<path
   fill="#101010"
   d="m 12.138,81.479 h 1.176 L 15.65,84.7 c 0.518,-0.484 0.826,-1.172 0.922,-2.065 l 0.119,-1.155 h 0.985 l -0.12,1.137 c -0.035,0.37 -0.104,0.7 -0.207,0.999 -0.104,0.297 -0.241,0.575 -0.412,0.835 -0.171,0.258 -0.434,0.563 -0.791,0.915 l 1.871,2.474 h -1.212 l -2.736,-3.718 c -0.149,0.076 -0.27,0.164 -0.361,0.274 -0.091,0.107 -0.17,0.252 -0.233,0.428 -0.063,0.175 -0.14,0.484 -0.226,0.926 l -0.414,2.09 H 11.83 l 0.434,-2.067 c 0.125,-0.591 0.239,-1.009 0.342,-1.255 0.104,-0.245 0.234,-0.444 0.392,-0.597 0.157,-0.152 0.369,-0.282 0.634,-0.387 z"
   id="path240280" />
			<path
   fill="#101010"
   d="m 22.974,87.839 h -0.959 v -3.737 c 0,-0.629 -0.127,-1.074 -0.381,-1.343 C 21.38,82.494 20.935,82.362 20.3,82.362 H 18.357 V 81.48 h 1.954 c 0.953,0 1.635,0.204 2.046,0.611 0.412,0.409 0.618,1.083 0.618,2.021 v 3.727 z"
   id="path240282" />
			<path
   fill="#101010"
   d="m 27.284,81.479 h 0.985 l -0.161,1.699 c -0.051,0.578 -0.122,0.995 -0.21,1.252 -0.087,0.258 -0.218,0.456 -0.391,0.597 -0.172,0.139 -0.458,0.263 -0.859,0.37 l -0.777,0.181 0.254,1.338 h 0.124 c 0.695,0 1.25,-0.042 1.668,-0.122 0.418,-0.08 0.749,-0.207 0.991,-0.381 0.242,-0.172 0.429,-0.418 0.563,-0.732 0.133,-0.318 0.239,-0.81 0.318,-1.479 l 0.326,-2.723 h 1 l -0.332,2.683 c -0.106,0.908 -0.258,1.579 -0.456,2.016 -0.197,0.437 -0.476,0.774 -0.835,1.016 -0.359,0.238 -0.854,0.412 -1.483,0.523 -0.63,0.108 -1.533,0.166 -2.707,0.174 L 24.089,81.48 h 0.991 l 0.637,3.271 0.377,-0.073 c 0.373,-0.083 0.634,-0.229 0.783,-0.437 0.147,-0.21 0.242,-0.566 0.279,-1.072 z"
   id="path240284" />
			<path
   fill="#101010"
   d="m 31.853,81.479 h 0.954 v 3.344 h -0.954 z"
   id="path240286" />
			<path
   fill="#101010"
   d="m 34.996,82.361 v -0.882 h 1.954 c 0.954,0 1.634,0.204 2.046,0.611 0.41,0.409 0.616,1.083 0.616,2.021 v 2.845 h 0.689 v 0.882 h -5.549 v -0.882 h 3.906 v -2.855 c 0,-0.635 -0.128,-1.085 -0.386,-1.348 C 38.014,82.491 37.57,82.36 36.937,82.36 h -1.941 z"
   id="path240288" />
			<path
   fill="#101010"
   d="m 43.904,81.479 h 0.954 v 3.344 h -0.954 z"
   id="path240290" />
			<path
   fill="#101010"
   d="m 47.736,82.361 h -0.984 v -0.882 h 3.435 c 0.953,0 1.638,0.204 2.052,0.608 0.415,0.406 0.622,1.08 0.622,2.024 v 3.727 h -0.954 v -3.737 c 0,-0.635 -0.128,-1.085 -0.385,-1.348 C 51.265,82.491 50.816,82.36 50.178,82.36 H 48.69 v 3.015 c 0,0.636 -0.057,1.128 -0.173,1.479 -0.115,0.349 -0.301,0.599 -0.557,0.75 -0.255,0.156 -0.658,0.233 -1.208,0.233 h -0.056 v -0.882 h 0.087 c 0.241,0 0.432,-0.044 0.57,-0.132 0.138,-0.089 0.236,-0.225 0.296,-0.412 0.058,-0.186 0.087,-0.468 0.087,-0.843 z"
   id="path240292" />
			<path
   fill="#101010"
   d="m 56.992,87.839 h -2.908 v -0.882 h 1.954 v -2.746 c 0,-0.554 -0.029,-0.949 -0.085,-1.187 C 55.896,82.786 55.8,82.616 55.665,82.513 55.53,82.409 55.335,82.361 55.08,82.361 h -0.7 v -0.882 h 0.669 c 0.552,0 0.956,0.077 1.209,0.232 0.254,0.151 0.439,0.403 0.557,0.755 0.117,0.351 0.177,0.842 0.177,1.475 z"
   id="path240294" />
			<path
   fill="#101010"
   d="m 61.303,81.479 h 0.984 l -0.161,1.699 c -0.051,0.578 -0.122,0.995 -0.21,1.252 -0.087,0.258 -0.218,0.456 -0.391,0.597 -0.172,0.139 -0.459,0.263 -0.859,0.37 l -0.778,0.181 0.254,1.338 h 0.125 c 0.695,0 1.25,-0.042 1.668,-0.122 0.418,-0.08 0.749,-0.207 0.99,-0.381 0.242,-0.172 0.428,-0.418 0.563,-0.732 0.132,-0.318 0.239,-0.81 0.317,-1.479 l 0.327,-2.723 h 1 L 64.8,84.162 c -0.106,0.908 -0.258,1.579 -0.456,2.016 -0.197,0.437 -0.476,0.774 -0.835,1.016 -0.359,0.238 -0.854,0.412 -1.483,0.523 -0.63,0.108 -1.532,0.166 -2.708,0.174 L 58.105,81.48 h 0.991 l 0.637,3.271 0.377,-0.073 c 0.373,-0.083 0.634,-0.229 0.784,-0.437 0.147,-0.21 0.242,-0.566 0.279,-1.072 z"
   id="path240296" />
			<path
   fill="#101010"
   d="m 71.47,87.839 h -0.958 v -3.737 c 0,-0.635 -0.129,-1.085 -0.386,-1.348 -0.257,-0.262 -0.702,-0.393 -1.333,-0.393 h -2.416 v -0.882 h 2.431 c 0.953,0 1.634,0.204 2.046,0.611 0.41,0.409 0.616,1.083 0.616,2.021 z m -4.036,0 h -0.953 v -4.133 h 0.953 z"
   id="path240298" />
		</g>
		<g
   id="g240364">
			<g
   id="g240330">
				<path
   fill="#ffffff"
   stroke="#101010"
   stroke-width="0.25"
   stroke-miterlimit="10"
   d="m 44.541,11.175 c 2.072,0 3.633,0.477 4.683,1.429 1.048,0.953 1.571,2.326 1.571,4.111 0,4.196 -1.246,7.414 -3.735,9.652 -2.49,2.24 -6.107,3.372 -10.848,3.396 -0.573,0 -1.098,-0.185 -1.573,-0.554 -0.478,-0.37 -0.787,-0.84 -0.931,-1.413 L 30.169,13.142 c -0.119,-0.5 -0.018,-0.955 0.304,-1.358 0.321,-0.407 0.745,-0.608 1.269,-0.608 h 3.146 c 0.595,0 1.12,0.19 1.572,0.571 0.453,0.383 0.716,0.857 0.787,1.429 l 1.716,11.299 c 0.048,0.188 0.167,0.284 0.358,0.284 h 0.393 c 1.215,0 2.235,-0.654 3.056,-1.965 0.823,-1.308 1.233,-3.098 1.233,-5.363 0,-0.621 -0.107,-1.043 -0.321,-1.27 -0.215,-0.227 -0.62,-0.338 -1.216,-0.338 -0.548,0 -1.025,-0.203 -1.429,-0.608 -0.406,-0.404 -0.607,-0.88 -0.607,-1.431 v -0.57 c 0,-0.547 0.201,-1.026 0.607,-1.43 0.404,-0.407 0.881,-0.608 1.429,-0.608 h 2.075 z"
   id="path240302" />
				<path
   fill="#ffffff"
   stroke="#101010"
   stroke-width="0.25"
   stroke-miterlimit="10"
   d="m 68.348,11.175 c 2.05,0 3.604,0.477 4.666,1.429 1.061,0.953 1.59,2.326 1.59,4.111 0,4.196 -1.251,7.414 -3.753,9.652 -2.502,2.24 -6.113,3.372 -10.832,3.396 -0.596,0 -1.122,-0.189 -1.573,-0.571 -0.452,-0.38 -0.739,-0.857 -0.858,-1.43 l -2.36,-11.654 c -0.047,-0.188 -0.166,-0.285 -0.357,-0.285 -0.524,0 -0.971,-0.185 -1.339,-0.555 -0.371,-0.367 -0.555,-0.815 -0.555,-1.342 v -0.713 c 0,-0.547 0.203,-1.026 0.608,-1.43 0.405,-0.407 0.88,-0.608 1.429,-0.608 z m -4.825,13.583 c 1.214,0 2.233,-0.654 3.056,-1.965 0.822,-1.308 1.234,-3.098 1.234,-5.363 0,-0.643 -0.114,-1.071 -0.34,-1.284 -0.228,-0.216 -0.65,-0.323 -1.269,-0.323 h -3.969 c -0.19,0 -0.286,0.097 -0.286,0.285 l 0.822,8.366 c 0,0.188 0.119,0.284 0.357,0.284 z"
   id="path240304" />
				<path
   fill="#ffffff"
   stroke="#101010"
   stroke-width="0.25"
   stroke-miterlimit="10"
   d="m 82.504,11.175 c 2.049,0 3.604,0.477 4.665,1.429 1.061,0.953 1.591,2.326 1.591,4.111 v 11.011 c 0,0.549 -0.203,1.025 -0.608,1.431 -0.405,0.407 -0.881,0.606 -1.429,0.606 H 83.65 c -0.55,0 -1.027,-0.199 -1.43,-0.606 -0.406,-0.405 -0.608,-0.882 -0.608,-1.431 V 17.43 c 0,-0.643 -0.113,-1.071 -0.339,-1.284 -0.227,-0.216 -0.649,-0.323 -1.269,-0.323 H 79 c -0.548,0 -1.025,-0.203 -1.429,-0.608 -0.406,-0.404 -0.608,-0.88 -0.608,-1.431 v -0.57 c 0,-0.547 0.202,-1.026 0.608,-1.43 0.404,-0.407 0.881,-0.608 1.429,-0.608 h 3.504 z"
   id="path240306" />
				<path
   fill="#ffffff"
   stroke="#101010"
   stroke-width="0.25"
   stroke-miterlimit="10"
   d="m 106.598,18.145 c 0,1.623 0.202,3.199 0.608,4.737 0.405,1.539 1.071,3.235 2.002,5.096 0.214,0.403 0.201,0.805 -0.036,1.198 -0.239,0.391 -0.584,0.587 -1.038,0.587 h -2.896 c -0.618,0 -1.197,-0.165 -1.732,-0.501 -0.537,-0.332 -0.936,-0.771 -1.197,-1.322 -0.455,-0.952 -0.764,-1.655 -0.931,-2.109 -0.022,-0.072 -0.07,-0.112 -0.142,-0.125 -0.072,-0.012 -0.119,0.007 -0.144,0.053 l -1.716,2.36 c -0.811,1.098 -1.882,1.645 -3.218,1.645 h -2.895 c -0.407,0 -0.705,-0.189 -0.894,-0.571 -0.191,-0.38 -0.156,-0.725 0.106,-1.036 l 7.328,-9.331 c 0.119,-0.166 0.179,-0.344 0.179,-0.535 V 17.43 c 0,-0.643 -0.113,-1.071 -0.339,-1.284 -0.227,-0.216 -0.649,-0.323 -1.269,-0.323 h -2.789 c -0.548,0 -1.025,-0.203 -1.43,-0.608 -0.406,-0.404 -0.608,-0.88 -0.608,-1.431 v -0.57 c 0,-0.547 0.202,-1.026 0.608,-1.43 0.405,-0.407 0.882,-0.608 1.43,-0.608 h 4.756 c 2.047,0 3.604,0.477 4.663,1.429 1.063,0.953 1.592,2.326 1.592,4.111 v 1.429 z"
   id="path240308" />
				<path
   fill="#ffffff"
   stroke="#101010"
   stroke-width="0.25"
   stroke-miterlimit="10"
   d="m 116.822,11.175 c 2.049,0 3.604,0.477 4.664,1.429 1.061,0.953 1.591,2.326 1.591,4.111 v 11.011 c 0,0.549 -0.202,1.025 -0.608,1.431 -0.404,0.407 -0.88,0.606 -1.428,0.606 h -3.074 c -0.549,0 -1.025,-0.199 -1.432,-0.606 -0.405,-0.405 -0.606,-0.882 -0.606,-1.431 V 17.43 c 0,-0.643 -0.114,-1.071 -0.341,-1.284 -0.226,-0.216 -0.648,-0.323 -1.269,-0.323 h -1 c -0.549,0 -1.024,-0.203 -1.431,-0.608 -0.405,-0.404 -0.609,-0.88 -0.609,-1.431 v -0.57 c 0,-0.547 0.204,-1.026 0.609,-1.43 0.406,-0.407 0.882,-0.608 1.431,-0.608 h 3.503 z"
   id="path240310" />
				<path
   fill="#ffffff"
   stroke="#101010"
   stroke-width="0.25"
   stroke-miterlimit="10"
   d="m 143.883,11.175 c 0.5,0 0.916,0.201 1.25,0.608 0.332,0.403 0.464,0.87 0.395,1.392 l -0.607,3.361 c -0.549,2.789 -1.633,4.911 -3.256,6.365 -0.19,0.144 -0.213,0.297 -0.07,0.462 l 3.182,4.722 c 0.238,0.356 0.256,0.727 0.053,1.106 -0.203,0.382 -0.517,0.571 -0.945,0.571 h -3.074 c -0.646,0 -1.247,-0.146 -1.805,-0.447 -0.562,-0.295 -1.021,-0.708 -1.379,-1.23 l -3.431,-5.114 c -0.048,-0.045 -0.103,-0.069 -0.161,-0.069 -0.06,0 -0.091,0.024 -0.091,0.069 -0.095,0.263 -0.226,0.837 -0.392,1.716 l -0.501,3.075 c -0.119,0.572 -0.405,1.05 -0.858,1.43 -0.452,0.382 -0.965,0.571 -1.535,0.571 h -2.36 c -0.526,0 -0.953,-0.199 -1.288,-0.606 -0.332,-0.405 -0.451,-0.871 -0.357,-1.395 l 0.608,-3.36 c 0.548,-2.789 1.632,-4.909 3.253,-6.365 0.166,-0.141 0.19,-0.295 0.072,-0.462 l -3.182,-4.72 c -0.238,-0.356 -0.257,-0.726 -0.053,-1.108 0.201,-0.381 0.518,-0.571 0.946,-0.571 h 3.073 c 0.621,0 1.217,0.148 1.787,0.448 0.572,0.294 1.038,0.708 1.395,1.231 l 3.432,5.114 c 0.024,0.046 0.064,0.067 0.125,0.067 0.06,0 0.102,-0.021 0.125,-0.067 0.097,-0.264 0.227,-0.834 0.395,-1.718 l 0.501,-3.076 c 0.095,-0.571 0.367,-1.046 0.821,-1.429 0.453,-0.381 0.979,-0.571 1.573,-0.571 z"
   id="path240312" />
				<path
   fill="#ffffff"
   stroke="#101010"
   stroke-width="0.25"
   stroke-miterlimit="10"
   d="m 13.303,36.425 c 2.177,0 3.83,0.508 4.957,1.52 1.125,1.014 1.69,2.466 1.69,4.368 v 20.052 c 0,0.581 -0.216,1.088 -0.646,1.519 -0.432,0.428 -0.939,0.647 -1.519,0.647 h -3.267 c -0.583,0 -1.089,-0.22 -1.519,-0.647 -0.432,-0.431 -0.646,-0.938 -0.646,-1.519 V 43.07 c 0,-0.684 -0.121,-1.137 -0.361,-1.367 -0.241,-0.228 -0.689,-0.342 -1.35,-0.342 H 9.581 C 8.998,41.361 8.492,41.147 8.062,40.715 7.631,40.284 7.416,39.778 7.416,39.195 V 38.59 c 0,-0.583 0.214,-1.089 0.646,-1.517 0.43,-0.435 0.936,-0.648 1.519,-0.648 z"
   id="path240314" />
				<path
   fill="#ffffff"
   stroke="#101010"
   stroke-width="0.25"
   stroke-miterlimit="10"
   d="m 29.101,36.425 c 2.177,0 3.831,0.508 4.957,1.52 1.126,1.014 1.69,2.466 1.69,4.368 v 4.101 c 0,0.581 -0.215,1.09 -0.646,1.519 -0.431,0.434 -0.939,0.646 -1.52,0.646 h -3.267 c -0.582,0 -1.088,-0.213 -1.519,-0.646 -0.43,-0.429 -0.645,-0.938 -0.645,-1.519 V 43.07 c 0,-0.684 -0.122,-1.137 -0.361,-1.367 -0.242,-0.228 -0.69,-0.342 -1.348,-0.342 h -1.064 c -0.583,0 -1.089,-0.214 -1.519,-0.646 -0.43,-0.431 -0.646,-0.937 -0.646,-1.52 V 38.59 c 0,-0.583 0.216,-1.089 0.646,-1.517 0.43,-0.435 0.936,-0.648 1.519,-0.648 z"
   id="path240316" />
				<path
   fill="#ffffff"
   stroke="#101010"
   stroke-width="0.25"
   stroke-miterlimit="10"
   d="m 44.9,36.425 c 2.177,0 3.83,0.508 4.957,1.52 1.126,1.014 1.689,2.466 1.689,4.368 v 11.696 c 0,0.582 -0.214,1.087 -0.646,1.52 -0.431,0.43 -0.937,0.646 -1.519,0.646 h -3.265 c -0.584,0 -1.091,-0.216 -1.519,-0.646 -0.432,-0.433 -0.646,-0.938 -0.646,-1.52 V 43.07 c 0,-0.684 -0.12,-1.137 -0.361,-1.367 -0.242,-0.228 -0.689,-0.342 -1.349,-0.342 h -1.063 c -0.582,0 -1.089,-0.214 -1.518,-0.646 -0.431,-0.431 -0.646,-0.937 -0.646,-1.52 V 38.59 c 0,-0.583 0.215,-1.089 0.646,-1.517 0.429,-0.435 0.936,-0.648 1.518,-0.648 z"
   id="path240318" />
				<path
   fill="#ffffff"
   stroke="#101010"
   stroke-width="0.25"
   stroke-miterlimit="10"
   d="m 60.888,36.425 c 2.178,0 3.83,0.508 4.957,1.52 1.125,1.014 1.69,2.466 1.69,4.368 v 11.696 c 0,0.582 -0.215,1.087 -0.646,1.52 -0.431,0.43 -0.936,0.646 -1.518,0.646 h -3.266 c -0.583,0 -1.089,-0.216 -1.52,-0.646 -0.43,-0.433 -0.646,-0.938 -0.646,-1.52 V 43.07 c 0,-0.684 -0.12,-1.137 -0.361,-1.367 -0.241,-0.228 -0.689,-0.342 -1.348,-0.342 h -1.064 c -0.583,0 -1.089,-0.214 -1.519,-0.646 -0.431,-0.431 -0.646,-0.937 -0.646,-1.52 V 38.59 c 0,-0.583 0.215,-1.089 0.646,-1.517 0.429,-0.435 0.936,-0.648 1.519,-0.648 z"
   id="path240320" />
				<path
   fill="#ffffff"
   stroke="#101010"
   stroke-width="0.25"
   stroke-miterlimit="10"
   d="m 86.486,43.83 c 0,1.721 0.214,3.399 0.646,5.03 0.428,1.635 1.139,3.439 2.126,5.416 0.226,0.429 0.214,0.853 -0.04,1.271 -0.253,0.418 -0.619,0.627 -1.1,0.627 h -3.077 c -0.658,0 -1.271,-0.178 -1.842,-0.532 -0.568,-0.353 -0.994,-0.821 -1.271,-1.405 -0.481,-1.013 -0.811,-1.759 -0.988,-2.243 -0.026,-0.073 -0.075,-0.117 -0.152,-0.129 -0.075,-0.014 -0.126,0.004 -0.151,0.056 l -1.824,2.505 c -0.86,1.164 -2,1.749 -3.417,1.749 h -3.078 c -0.43,0 -0.746,-0.205 -0.949,-0.61 -0.203,-0.401 -0.166,-0.772 0.114,-1.099 l 7.786,-9.914 c 0.126,-0.175 0.189,-0.366 0.189,-0.567 V 43.07 c 0,-0.684 -0.121,-1.137 -0.36,-1.367 -0.241,-0.228 -0.691,-0.342 -1.349,-0.342 h -2.961 c -0.583,0 -1.09,-0.214 -1.52,-0.646 -0.431,-0.431 -0.646,-0.937 -0.646,-1.52 V 38.59 c 0,-0.583 0.215,-1.089 0.646,-1.517 0.43,-0.435 0.936,-0.648 1.52,-0.648 h 5.05 c 2.179,0 3.829,0.508 4.957,1.52 1.128,1.014 1.691,2.466 1.691,4.368 z"
   id="path240322" />
				<path
   fill="#ffffff"
   stroke="#101010"
   stroke-width="0.25"
   stroke-miterlimit="10"
   d="m 99.245,36.425 c 2.177,0 3.829,0.508 4.956,1.52 1.126,1.014 1.691,2.466 1.691,4.368 v 11.696 c 0,0.582 -0.217,1.087 -0.646,1.52 -0.432,0.43 -0.938,0.646 -1.521,0.646 h -9.341 c -0.583,0 -1.089,-0.216 -1.519,-0.646 -0.432,-0.433 -0.646,-0.938 -0.646,-1.52 V 53.4 c 0,-0.58 0.214,-1.088 0.646,-1.52 0.43,-0.429 0.936,-0.644 1.519,-0.644 h 3.569 c 0.229,0 0.342,-0.115 0.342,-0.341 V 43.07 c 0,-0.684 -0.119,-1.137 -0.36,-1.367 -0.242,-0.228 -0.692,-0.342 -1.348,-0.342 h -1.064 c -0.583,0 -1.088,-0.214 -1.519,-0.646 -0.432,-0.431 -0.646,-0.937 -0.646,-1.52 V 38.59 c 0,-0.583 0.213,-1.089 0.646,-1.517 0.431,-0.435 0.936,-0.648 1.519,-0.648 z"
   id="path240324" />
				<path
   fill="#ffffff"
   stroke="#101010"
   stroke-width="0.25"
   stroke-miterlimit="10"
   d="m 115.043,36.425 c 2.178,0 3.83,0.508 4.955,1.52 1.129,1.014 1.691,2.466 1.691,4.368 v 4.101 c 0,0.581 -0.216,1.09 -0.646,1.519 -0.43,0.434 -0.935,0.646 -1.519,0.646 h -3.265 c -0.583,0 -1.089,-0.213 -1.521,-0.646 -0.43,-0.429 -0.645,-0.938 -0.645,-1.519 V 43.07 c 0,-0.684 -0.121,-1.137 -0.361,-1.367 -0.24,-0.228 -0.688,-0.342 -1.348,-0.342 h -1.063 c -0.582,0 -1.088,-0.214 -1.521,-0.646 -0.431,-0.431 -0.646,-0.937 -0.646,-1.52 V 38.59 c 0,-0.583 0.215,-1.089 0.646,-1.517 0.433,-0.435 0.938,-0.648 1.521,-0.648 z"
   id="path240326" />
				<path
   fill="#ffffff"
   stroke="#101010"
   stroke-width="0.25"
   stroke-miterlimit="10"
   d="m 138.058,36.425 c 2.177,0 3.829,0.508 4.957,1.52 1.126,1.014 1.69,2.466 1.69,4.368 v 11.696 c 0,0.582 -0.215,1.087 -0.645,1.52 -0.433,0.43 -0.939,0.646 -1.521,0.646 h -15.038 c -0.583,0 -1.089,-0.216 -1.521,-0.646 -0.429,-0.433 -0.645,-0.938 -0.645,-1.52 V 53.4 c 0,-0.58 0.216,-1.088 0.645,-1.52 0.432,-0.429 0.938,-0.644 1.521,-0.644 h 9.722 c 0.229,0 0.344,-0.115 0.344,-0.341 V 43.07 c 0,-0.684 -0.122,-1.137 -0.361,-1.367 -0.242,-0.228 -0.69,-0.342 -1.349,-0.342 h -2.962 c -0.229,0 -0.344,0.114 -0.344,0.342 V 42.5 c 0,0.938 0.164,1.497 0.494,1.672 1.19,0.657 1.786,1.344 1.786,2.05 v 0.267 c 0,0.584 -0.21,1.078 -0.626,1.482 -0.418,0.405 -0.908,0.594 -1.464,0.568 -2.886,-0.152 -4.841,-0.679 -5.866,-1.575 -1.025,-0.897 -1.539,-2.388 -1.539,-4.464 v -3.91 c 0,-0.583 0.216,-1.089 0.645,-1.517 0.432,-0.435 0.938,-0.648 1.521,-0.648 z"
   id="path240328" />
			</g>
			<g
   id="g240362">
				<g
   id="g240360">
					<path
   fill="#0c0c0c"
   stroke="#282828"
   stroke-width="0.25"
   stroke-miterlimit="10"
   d="m 42.438,9.786 c 2.072,0 3.633,0.476 4.683,1.428 1.048,0.954 1.572,2.327 1.572,4.112 0,4.195 -1.246,7.414 -3.735,9.652 -2.491,2.239 -6.107,3.372 -10.849,3.396 -0.572,0 -1.097,-0.185 -1.572,-0.554 -0.478,-0.37 -0.788,-0.84 -0.931,-1.414 L 28.067,11.753 c -0.12,-0.501 -0.018,-0.955 0.304,-1.359 0.322,-0.407 0.744,-0.607 1.269,-0.607 h 3.145 c 0.596,0 1.122,0.189 1.574,0.571 0.453,0.382 0.716,0.856 0.787,1.428 l 1.716,11.299 c 0.047,0.188 0.167,0.285 0.358,0.285 h 0.393 c 1.215,0 2.235,-0.655 3.056,-1.966 0.823,-1.308 1.233,-3.097 1.233,-5.362 0,-0.621 -0.106,-1.043 -0.321,-1.27 -0.215,-0.227 -0.621,-0.338 -1.216,-0.338 -0.548,0 -1.024,-0.203 -1.429,-0.609 -0.406,-0.404 -0.608,-0.879 -0.608,-1.43 v -0.571 c 0,-0.547 0.203,-1.025 0.608,-1.43 0.404,-0.407 0.881,-0.607 1.429,-0.607 h 2.073 z"
   id="path240332" />
					<path
   fill="#0c0c0c"
   stroke="#282828"
   stroke-width="0.25"
   stroke-miterlimit="10"
   d="m 66.246,9.786 c 2.05,0 3.604,0.476 4.665,1.428 1.06,0.954 1.591,2.327 1.591,4.112 0,4.195 -1.251,7.414 -3.754,9.652 -2.502,2.239 -6.113,3.372 -10.832,3.396 -0.596,0 -1.121,-0.19 -1.573,-0.571 -0.453,-0.38 -0.739,-0.857 -0.858,-1.43 l -2.36,-11.654 c -0.047,-0.189 -0.166,-0.285 -0.357,-0.285 -0.524,0 -0.971,-0.185 -1.34,-0.555 -0.37,-0.368 -0.554,-0.815 -0.554,-1.342 v -0.714 c 0,-0.547 0.203,-1.025 0.608,-1.43 0.404,-0.407 0.88,-0.607 1.429,-0.607 z M 61.42,23.369 c 1.214,0 2.233,-0.655 3.055,-1.966 0.823,-1.308 1.235,-3.097 1.235,-5.362 0,-0.643 -0.114,-1.071 -0.34,-1.285 -0.228,-0.215 -0.65,-0.322 -1.27,-0.322 h -3.968 c -0.191,0 -0.286,0.096 -0.286,0.285 l 0.822,8.365 c 0,0.188 0.119,0.285 0.357,0.285 z"
   id="path240334" />
					<path
   fill="#0c0c0c"
   stroke="#282828"
   stroke-width="0.25"
   stroke-miterlimit="10"
   d="m 80.4,9.786 c 2.05,0 3.605,0.476 4.666,1.428 1.06,0.954 1.591,2.327 1.591,4.112 v 11.01 c 0,0.55 -0.203,1.025 -0.608,1.432 -0.405,0.407 -0.882,0.606 -1.429,0.606 h -3.075 c -0.549,0 -1.025,-0.2 -1.429,-0.606 -0.406,-0.406 -0.608,-0.882 -0.608,-1.432 V 16.041 c 0,-0.643 -0.113,-1.071 -0.34,-1.285 -0.226,-0.215 -0.648,-0.322 -1.269,-0.322 h -1.001 c -0.548,0 -1.025,-0.203 -1.429,-0.609 -0.406,-0.404 -0.608,-0.879 -0.608,-1.43 v -0.571 c 0,-0.547 0.202,-1.025 0.608,-1.43 0.404,-0.407 0.881,-0.607 1.429,-0.607 H 80.4 Z"
   id="path240336" />
					<path
   fill="#0c0c0c"
   stroke="#282828"
   stroke-width="0.25"
   stroke-miterlimit="10"
   d="m 104.494,16.756 c 0,1.622 0.202,3.199 0.609,4.737 0.404,1.538 1.071,3.235 2.002,5.095 0.214,0.403 0.201,0.805 -0.038,1.198 -0.237,0.391 -0.583,0.588 -1.036,0.588 h -2.896 c -0.618,0 -1.196,-0.166 -1.733,-0.501 -0.535,-0.332 -0.935,-0.771 -1.197,-1.322 -0.454,-0.953 -0.764,-1.655 -0.93,-2.11 -0.023,-0.071 -0.07,-0.112 -0.142,-0.124 -0.072,-0.013 -0.12,0.007 -0.144,0.053 l -1.715,2.36 c -0.811,1.098 -1.883,1.645 -3.218,1.645 H 91.16 c -0.407,0 -0.704,-0.19 -0.893,-0.571 -0.191,-0.38 -0.156,-0.725 0.105,-1.037 l 7.328,-9.33 c 0.119,-0.167 0.179,-0.345 0.179,-0.536 v -0.858 c 0,-0.643 -0.113,-1.071 -0.339,-1.285 -0.226,-0.215 -0.649,-0.322 -1.269,-0.322 h -2.788 c -0.549,0 -1.025,-0.203 -1.43,-0.609 -0.406,-0.404 -0.607,-0.879 -0.607,-1.43 v -0.571 c 0,-0.547 0.201,-1.025 0.607,-1.43 0.405,-0.407 0.881,-0.607 1.43,-0.607 h 4.756 c 2.047,0 3.604,0.476 4.663,1.428 1.062,0.954 1.591,2.327 1.591,4.112 v 1.427 z"
   id="path240338" />
					<path
   fill="#0c0c0c"
   stroke="#282828"
   stroke-width="0.25"
   stroke-miterlimit="10"
   d="m 114.72,9.786 c 2.05,0 3.604,0.476 4.663,1.428 1.063,0.954 1.592,2.327 1.592,4.112 v 11.01 c 0,0.55 -0.203,1.025 -0.607,1.432 -0.405,0.406 -0.881,0.606 -1.429,0.606 h -3.075 c -0.549,0 -1.024,-0.2 -1.431,-0.606 -0.405,-0.406 -0.606,-0.882 -0.606,-1.432 V 16.041 c 0,-0.643 -0.115,-1.071 -0.341,-1.285 -0.227,-0.215 -0.649,-0.322 -1.269,-0.322 h -1 c -0.549,0 -1.025,-0.203 -1.432,-0.609 -0.404,-0.404 -0.608,-0.879 -0.608,-1.43 v -0.571 c 0,-0.547 0.204,-1.025 0.608,-1.43 0.406,-0.407 0.883,-0.607 1.432,-0.607 h 3.503 z"
   id="path240340" />
					<path
   fill="#0c0c0c"
   stroke="#282828"
   stroke-width="0.25"
   stroke-miterlimit="10"
   d="m 141.779,9.786 c 0.502,0 0.915,0.2 1.251,0.607 0.333,0.404 0.464,0.871 0.394,1.392 l -0.607,3.362 c -0.549,2.789 -1.633,4.91 -3.255,6.364 -0.191,0.145 -0.214,0.298 -0.069,0.463 l 3.181,4.721 c 0.238,0.357 0.257,0.728 0.053,1.107 -0.203,0.381 -0.517,0.571 -0.946,0.571 h -3.074 c -0.645,0 -1.246,-0.147 -1.805,-0.448 -0.561,-0.294 -1.021,-0.708 -1.378,-1.23 l -3.433,-5.114 c -0.047,-0.045 -0.1,-0.069 -0.159,-0.069 -0.059,0 -0.091,0.024 -0.091,0.069 -0.094,0.264 -0.226,0.837 -0.393,1.716 l -0.5,3.076 c -0.119,0.572 -0.404,1.05 -0.859,1.43 -0.451,0.381 -0.965,0.571 -1.535,0.571 h -2.359 c -0.525,0 -0.953,-0.2 -1.288,-0.606 -0.333,-0.406 -0.451,-0.871 -0.356,-1.395 l 0.607,-3.36 c 0.548,-2.789 1.632,-4.91 3.252,-6.365 0.167,-0.142 0.191,-0.296 0.072,-0.463 l -3.182,-4.72 c -0.238,-0.356 -0.256,-0.726 -0.053,-1.107 0.201,-0.382 0.518,-0.571 0.947,-0.571 h 3.074 c 0.619,0 1.215,0.147 1.786,0.447 0.572,0.295 1.036,0.708 1.394,1.231 l 3.433,5.114 c 0.023,0.047 0.065,0.068 0.126,0.068 0.059,0 0.102,-0.021 0.124,-0.068 0.097,-0.263 0.226,-0.834 0.394,-1.717 l 0.502,-3.077 c 0.094,-0.571 0.367,-1.046 0.821,-1.428 0.451,-0.382 0.978,-0.571 1.573,-0.571 z"
   id="path240342" />
					<path
   fill="#0c0c0c"
   stroke="#282828"
   stroke-width="0.25"
   stroke-miterlimit="10"
   d="m 11.2,35.036 c 2.177,0 3.829,0.507 4.957,1.519 1.125,1.014 1.69,2.467 1.69,4.368 v 20.052 c 0,0.582 -0.216,1.088 -0.647,1.52 -0.43,0.428 -0.938,0.647 -1.518,0.647 h -3.267 c -0.583,0 -1.089,-0.22 -1.52,-0.647 -0.431,-0.432 -0.646,-0.938 -0.646,-1.52 V 41.682 c 0,-0.684 -0.12,-1.137 -0.361,-1.367 C 9.647,40.086 9.199,39.973 8.539,39.973 H 7.478 c -0.583,0 -1.089,-0.215 -1.519,-0.646 -0.431,-0.43 -0.646,-0.936 -0.646,-1.519 v -0.606 c 0,-0.584 0.214,-1.09 0.646,-1.517 0.429,-0.435 0.936,-0.648 1.519,-0.648 H 11.2 Z"
   id="path240344" />
					<path
   fill="#0c0c0c"
   stroke="#282828"
   stroke-width="0.25"
   stroke-miterlimit="10"
   d="m 26.998,35.036 c 2.177,0 3.83,0.507 4.957,1.519 1.125,1.014 1.689,2.467 1.689,4.368 v 4.102 c 0,0.58 -0.215,1.089 -0.646,1.518 -0.431,0.435 -0.938,0.647 -1.519,0.647 h -3.267 c -0.582,0 -1.088,-0.213 -1.519,-0.647 -0.43,-0.429 -0.644,-0.938 -0.644,-1.518 v -3.343 c 0,-0.684 -0.122,-1.137 -0.362,-1.367 -0.241,-0.229 -0.69,-0.342 -1.348,-0.342 h -1.063 c -0.583,0 -1.089,-0.215 -1.519,-0.646 -0.43,-0.43 -0.646,-0.936 -0.646,-1.519 v -0.606 c 0,-0.584 0.216,-1.09 0.646,-1.517 0.43,-0.435 0.936,-0.648 1.519,-0.648 h 3.722 z"
   id="path240346" />
					<path
   fill="#0c0c0c"
   stroke="#282828"
   stroke-width="0.25"
   stroke-miterlimit="10"
   d="m 42.797,35.036 c 2.177,0 3.83,0.507 4.957,1.519 1.126,1.014 1.69,2.467 1.69,4.368 v 11.696 c 0,0.582 -0.214,1.087 -0.646,1.52 -0.431,0.431 -0.937,0.646 -1.519,0.646 h -3.266 c -0.584,0 -1.09,-0.216 -1.519,-0.646 -0.431,-0.433 -0.646,-0.938 -0.646,-1.52 V 41.682 c 0,-0.684 -0.12,-1.137 -0.361,-1.367 -0.242,-0.229 -0.689,-0.342 -1.348,-0.342 h -1.064 c -0.583,0 -1.088,-0.215 -1.517,-0.646 -0.432,-0.43 -0.646,-0.936 -0.646,-1.519 v -0.606 c 0,-0.584 0.214,-1.09 0.646,-1.517 0.429,-0.435 0.935,-0.648 1.517,-0.648 h 3.722 z"
   id="path240348" />
					<path
   fill="#0c0c0c"
   stroke="#282828"
   stroke-width="0.25"
   stroke-miterlimit="10"
   d="m 58.785,35.036 c 2.178,0 3.83,0.507 4.957,1.519 1.125,1.014 1.69,2.467 1.69,4.368 v 11.696 c 0,0.582 -0.215,1.087 -0.647,1.52 -0.43,0.431 -0.937,0.646 -1.517,0.646 h -3.266 c -0.583,0 -1.089,-0.216 -1.52,-0.646 -0.43,-0.433 -0.646,-0.938 -0.646,-1.52 V 41.682 c 0,-0.684 -0.12,-1.137 -0.36,-1.367 -0.241,-0.229 -0.69,-0.342 -1.35,-0.342 h -1.062 c -0.583,0 -1.089,-0.215 -1.519,-0.646 -0.432,-0.43 -0.646,-0.936 -0.646,-1.519 v -0.606 c 0,-0.584 0.214,-1.09 0.646,-1.517 0.429,-0.435 0.935,-0.648 1.519,-0.648 h 3.721 z"
   id="path240350" />
					<path
   fill="#0c0c0c"
   stroke="#282828"
   stroke-width="0.25"
   stroke-miterlimit="10"
   d="m 84.384,42.441 c 0,1.72 0.213,3.399 0.646,5.03 0.427,1.635 1.139,3.438 2.126,5.415 0.226,0.429 0.213,0.854 -0.04,1.271 -0.253,0.417 -0.62,0.627 -1.101,0.627 h -3.076 c -0.658,0 -1.271,-0.178 -1.842,-0.532 -0.568,-0.353 -0.994,-0.822 -1.271,-1.405 -0.482,-1.014 -0.812,-1.76 -0.988,-2.244 -0.026,-0.073 -0.077,-0.116 -0.152,-0.129 -0.076,-0.014 -0.127,0.004 -0.151,0.056 l -1.824,2.506 c -0.86,1.164 -2,1.749 -3.417,1.749 h -3.077 c -0.431,0 -0.746,-0.205 -0.949,-0.611 -0.203,-0.401 -0.166,-0.771 0.114,-1.099 l 7.785,-9.914 c 0.127,-0.175 0.189,-0.366 0.189,-0.566 v -0.913 c 0,-0.684 -0.121,-1.137 -0.36,-1.367 -0.241,-0.229 -0.691,-0.342 -1.349,-0.342 h -2.96 c -0.583,0 -1.09,-0.215 -1.52,-0.646 -0.43,-0.43 -0.646,-0.936 -0.646,-1.519 v -0.606 c 0,-0.584 0.216,-1.09 0.646,-1.517 0.43,-0.435 0.937,-0.648 1.52,-0.648 h 5.05 c 2.179,0 3.829,0.507 4.957,1.519 1.129,1.014 1.691,2.467 1.691,4.368 v 1.517 z"
   id="path240352" />
					<path
   fill="#0c0c0c"
   stroke="#282828"
   stroke-width="0.25"
   stroke-miterlimit="10"
   d="m 97.142,35.036 c 2.176,0 3.829,0.507 4.957,1.519 1.126,1.014 1.69,2.467 1.69,4.368 v 11.696 c 0,0.582 -0.216,1.087 -0.646,1.52 -0.433,0.431 -0.938,0.646 -1.521,0.646 h -9.341 c -0.583,0 -1.09,-0.216 -1.519,-0.646 -0.432,-0.433 -0.646,-0.938 -0.646,-1.52 v -0.608 c 0,-0.581 0.214,-1.088 0.646,-1.52 0.429,-0.429 0.936,-0.645 1.519,-0.645 h 3.569 c 0.229,0 0.341,-0.115 0.341,-0.341 v -7.824 c 0,-0.684 -0.118,-1.137 -0.359,-1.367 C 95.59,40.085 95.14,39.972 94.483,39.972 H 93.42 c -0.583,0 -1.088,-0.215 -1.519,-0.646 -0.432,-0.43 -0.646,-0.936 -0.646,-1.519 v -0.606 c 0,-0.584 0.214,-1.09 0.646,-1.517 0.43,-0.435 0.936,-0.648 1.519,-0.648 z"
   id="path240354" />
					<path
   fill="#0c0c0c"
   stroke="#282828"
   stroke-width="0.25"
   stroke-miterlimit="10"
   d="m 112.941,35.036 c 2.177,0 3.829,0.507 4.953,1.519 1.129,1.014 1.691,2.467 1.691,4.368 v 4.102 c 0,0.58 -0.215,1.089 -0.646,1.518 -0.43,0.435 -0.936,0.647 -1.519,0.647 h -3.265 c -0.583,0 -1.091,-0.213 -1.522,-0.647 -0.429,-0.429 -0.645,-0.938 -0.645,-1.518 v -3.343 c 0,-0.684 -0.121,-1.137 -0.36,-1.367 -0.24,-0.229 -0.688,-0.342 -1.349,-0.342 h -1.063 c -0.582,0 -1.088,-0.215 -1.52,-0.646 -0.43,-0.43 -0.647,-0.936 -0.647,-1.519 v -0.606 c 0,-0.584 0.218,-1.09 0.647,-1.517 0.432,-0.435 0.938,-0.648 1.52,-0.648 h 3.725 z"
   id="path240356" />
					<path
   fill="#0c0c0c"
   stroke="#282828"
   stroke-width="0.25"
   stroke-miterlimit="10"
   d="m 135.955,35.036 c 2.177,0 3.829,0.507 4.957,1.519 1.126,1.014 1.691,2.467 1.691,4.368 v 11.696 c 0,0.582 -0.217,1.087 -0.646,1.52 -0.433,0.431 -0.938,0.646 -1.521,0.646 h -15.037 c -0.583,0 -1.089,-0.216 -1.521,-0.646 -0.429,-0.433 -0.645,-0.938 -0.645,-1.52 v -0.608 c 0,-0.581 0.216,-1.088 0.645,-1.52 0.433,-0.429 0.938,-0.645 1.521,-0.645 h 9.722 c 0.228,0 0.342,-0.115 0.342,-0.341 v -7.824 c 0,-0.684 -0.12,-1.137 -0.36,-1.367 -0.241,-0.229 -0.691,-0.342 -1.348,-0.342 h -2.962 c -0.229,0 -0.343,0.113 -0.343,0.342 v 0.796 c 0,0.938 0.162,1.498 0.492,1.673 1.191,0.656 1.787,1.343 1.787,2.05 v 0.266 c 0,0.585 -0.209,1.079 -0.628,1.482 -0.417,0.406 -0.905,0.595 -1.462,0.569 -2.887,-0.152 -4.841,-0.679 -5.867,-1.575 -1.024,-0.898 -1.539,-2.388 -1.539,-4.465 v -3.909 c 0,-0.584 0.216,-1.09 0.645,-1.517 0.433,-0.435 0.938,-0.648 1.521,-0.648 z"
   id="path240358" />
				</g>
			</g>
		</g>
		
		<g
   id="g240414">
			<path
   fill="#101010"
   d="m 12.202,13.361 c 0.036,0.024 0.075,0.052 0.109,0.072 l 0.223,0.29 C 11.987,11.981 11.961,4.644 10.231,7.362 9.588,8.369 9.554,9.371 9.821,10.268 9.021,9.781 8.044,9.557 6.905,9.919 c -3.069,0.977 4.018,2.881 5.56,3.855 l -0.222,-0.288 c -0.011,-0.037 -0.028,-0.082 -0.041,-0.125 z"
   id="path240378" />
			<g
   id="g240412">
				<g
   id="g240408">
					<g
   id="g240384">
						<path
   fill="#101010"
   d="M 23.725,13.751 C 22.106,9.6 20,9.263 14,9.199 V 9.193 c 0,0.005 0,0.005 0,0.006 0,-10e-4 0,-10e-4 0,-0.006 V 9.199 C 14,9.262 8.247,10.16 6.63,14.315 6.397,14.548 5.211,18 5.426,23 H 5.411 c 0,0 0.074,0.7 0.298,1.477 0.2,1.201 1.908,5.864 10.347,5.718 9.422,0.168 9.915,-5.971 9.826,-6.238 1.159,-3.837 -1.889,-9.935 -2.157,-10.206 z"
   id="path240380" />
						<path
   fill="#101010"
   d="M 15.672,30.579 C 6.431,30.579 5.353,24.549 5.311,24.3 5.09,23.547 5.015,23 5.011,23 H 4.967 5.01 c -0.062,-5 1.623,-7.938 2.117,-8.675 1.825,-4.606 6.599,-5.351 8.571,-5.402 4.618,0.119 7.703,1.775 8.947,4.918 0.576,0.866 3.164,6.39 2.068,10.183 0.005,0.514 -0.037,1.689 -0.87,2.845 C 24.621,28.563 20,30.551 17,30.551 v 0.005 l -0.664,0.007 z M 5.84,23.095 c 0.037,0.271 0.117,0.741 0.256,1.223 0.046,0.265 9.953,3.768 9.953,3.768 0,0 6.539,0.783 8.245,-0.979 1.356,-1.399 1.624,-2.896 1.617,-3.113 l -0.04,-0.121 0.051,-0.045 c 1.108,-3.66 -1.701,-9.285 -1.939,-9.594 L 23.91,14.116 c -1.121,-2.883 -3.884,-4.4 -8.212,-4.511 -1.797,0.045 -6.203,0.608 -7.84,4.811 l -0.09,0.137 c -0.289,0.391 -2.141,4.605 -1.939,8.333 z"
   id="path240382" />
					</g>
					<g
   id="g240388">
						<path
   fill="#ffffff"
   d="m 26.185,23.104 c 0,0 -0.134,-2.028 -0.447,-2.714 -0.313,-0.694 -0.357,-2.388 -0.401,-3.06 -0.044,-0.665 -0.579,-2.527 -2.23,-2.348 -1.56,0.311 -3.058,1.936 -3.568,5.107 -0.176,1.106 0.357,2.21 0.357,2.21 0,0 1.071,2.7 -3.835,2.7 h -0.034 c -4.907,0 -3.836,-2.682 -3.836,-2.682 0,0 0.534,-1.418 0.356,-2.527 C 12.04,16.619 10.542,15.185 8.98,14.872 7.332,14.694 6.794,16.694 6.749,17.363 6.706,18.034 6.663,19.875 6.35,20.568 6.036,21.259 5.903,22.68 5.903,22.68 c 0,0 -0.625,5.32 10.124,5.32 0.005,0 0.01,0 0.016,0 0.005,0 -0.016,0 0,0 10.749,0 10.142,-4.896 10.142,-4.896 z"
   id="path240386" />
					</g>
					<g
   id="g240392">
						<path
   fill="#101010"
   d="m 9.698,17.861 c -0.13,-0.045 -0.27,-0.066 -0.416,-0.066 -0.751,0 -1.359,0.608 -1.359,1.361 0,0.75 0.608,1.358 1.359,1.358 0.751,0 1.36,-0.608 1.36,-1.358 0,-0.23 -0.055,-0.44 -0.154,-0.626 l -1.382,0.551 z"
   id="path240390" />
					</g>
					<g
   id="g240396">
						<path
   fill="#101010"
   d="m 23.15,17.861 c -0.132,-0.045 -0.27,-0.066 -0.414,-0.066 -0.752,0 -1.361,0.608 -1.361,1.361 0,0.75 0.609,1.358 1.361,1.358 0.751,0 1.357,-0.608 1.357,-1.358 0,-0.23 -0.054,-0.44 -0.153,-0.626 l -1.383,0.551 z"
   id="path240394" />
					</g>
					<g
   id="g240406">
						<g
   id="g240400">
							<path
   fill="#edc624"
   d="m 18.296,20.851 c 0,0 -0.003,-0.002 -0.008,-0.005 -0.026,-0.123 -0.107,-0.174 -0.144,-0.202 -0.723,-0.451 -1.454,-0.572 -2.105,-0.536 -0.652,-0.036 -1.383,0.085 -2.106,0.536 -0.037,0.028 -0.119,0.079 -0.144,0.202 -0.005,0.003 -0.008,0.005 -0.008,0.005 l 0.005,0.009 c -0.021,0.135 0.026,0.357 0.276,0.74 0.306,0.468 1.531,1.942 1.531,1.942 0,0 0.477,0.518 0.891,0 0,0 1.225,-1.526 1.531,-1.995 0.25,-0.381 0.299,-0.553 0.276,-0.688 z"
   id="path240398" />
						</g>
						<g
   id="g240404">
							<path
   fill="#edc624"
   d="m 18.088,21.628 c 0,0 -1.704,-1.144 -3.951,-0.081"
   id="path240402" />
						</g>
					</g>
				</g>
				<path
   fill="#101010"
   d="m 26.946,21.096 c 0,0 0.45,5.054 -1.291,5.613"
   id="path240410" />
			</g>
		</g>
	</g>

<g
   id="g226103"
   transform="matrix(0.95231942,0,0,1.1027405,65.812064,-1.9951511)"><text
     xml:space="preserve"
     style="font-size:29.362px;line-height:0.1;font-family:sans-serif;stroke-width:0.917561"
     x="10.522468"
     y="81.597839"
     id="text208939"
     transform="scale(1.0003007,0.99969936)"><tspan
       sodipodi:role="line"
       id="tspan208937"
       x="10.522468"
       y="81.597839"
       style="stroke-width:0.917561">2023</tspan></text></g></svg>
