<?xml version="1.0" encoding="UTF-8" standalone="no"?>
<!-- Generator: Adobe Illustrator 16.0.3, SVG Export Plug-In . SVG Version: 6.00 Build 0)  -->

<svg
   version="1.1"
   id="Layer_1"
   x="0px"
   y="0px"
   width="151.416px"
   height="98px"
   viewBox="0 0 151.416 98"
   enable-background="new 0 0 151.416 98"
   xml:space="preserve"
   sodipodi:docname="ap_logo_en.svg"
   inkscape:version="1.1.2 (0a00cf5339, 2022-02-04)"
   xmlns:inkscape="http://www.inkscape.org/namespaces/inkscape"
   xmlns:sodipodi="http://sodipodi.sourceforge.net/DTD/sodipodi-0.dtd"
   xmlns="http://www.w3.org/2000/svg"
   xmlns:svg="http://www.w3.org/2000/svg"><defs
   id="defs239114" /><sodipodi:namedview
   id="namedview239112"
   pagecolor="#ffffff"
   bordercolor="#666666"
   borderopacity="1.0"
   inkscape:pageshadow="2"
   inkscape:pageopacity="0.0"
   inkscape:pagecheckerboard="0"
   showgrid="false"
   inkscape:zoom="6.0306122"
   inkscape:cx="75.697124"
   inkscape:cy="49"
   inkscape:window-width="1462"
   inkscape:window-height="800"
   inkscape:window-x="0"
   inkscape:window-y="0"
   inkscape:window-maximized="1"
   inkscape:current-layer="Layer_1" />
<g
   id="g238981">
	<path
   fill="#232323"
   d="M76.567,73.766c0.063,0.063,0.094,0.139,0.094,0.229s-0.031,0.165-0.094,0.225   c-0.063,0.061-0.139,0.09-0.229,0.09h-1.522v4.299c0,0.094-0.034,0.174-0.101,0.24c-0.067,0.064-0.149,0.096-0.244,0.096   c-0.095,0-0.175-0.031-0.24-0.096c-0.065-0.066-0.097-0.146-0.097-0.24v-4.299h-1.53c-0.09,0-0.165-0.029-0.225-0.09   c-0.06-0.06-0.09-0.135-0.09-0.225s0.03-0.166,0.09-0.229s0.135-0.094,0.225-0.094h3.735   C76.429,73.672,76.505,73.703,76.567,73.766z"
   id="path238877" />
	<path
   fill="#232323"
   d="M80.295,75.201c0.203,0.131,0.357,0.309,0.465,0.533s0.162,0.473,0.162,0.742v2.131   c0,0.094-0.034,0.174-0.102,0.24c-0.067,0.064-0.149,0.096-0.244,0.096c-0.095,0-0.175-0.031-0.24-0.096   c-0.065-0.066-0.098-0.146-0.098-0.24v-2.057c0-0.609-0.275-0.914-0.825-0.914c-0.25,0-0.474,0.064-0.671,0.195   c-0.198,0.129-0.384,0.305-0.559,0.525v2.25c0,0.094-0.034,0.174-0.101,0.24c-0.067,0.064-0.149,0.096-0.244,0.096   c-0.095,0-0.175-0.031-0.24-0.096c-0.065-0.066-0.098-0.146-0.098-0.24v-4.868c0-0.095,0.033-0.177,0.098-0.243   c0.065-0.068,0.145-0.102,0.24-0.102c0.095,0,0.176,0.033,0.244,0.102c0.067,0.066,0.101,0.148,0.101,0.243v1.958   c0.19-0.211,0.395-0.379,0.615-0.504c0.22-0.125,0.48-0.188,0.78-0.188C79.854,75.006,80.092,75.072,80.295,75.201z"
   id="path238879" />
	<path
   fill="#232323"
   d="M85.391,78.164c0.06,0.055,0.09,0.125,0.09,0.211c0,0.109-0.065,0.201-0.195,0.277   c-0.195,0.109-0.388,0.191-0.578,0.246c-0.19,0.057-0.435,0.084-0.735,0.084c-0.61,0-1.086-0.174-1.429-0.521   c-0.343-0.348-0.514-0.836-0.514-1.467c0-0.355,0.065-0.682,0.195-0.982s0.33-0.543,0.6-0.727c0.27-0.186,0.603-0.279,0.998-0.279   c0.37,0,0.69,0.088,0.96,0.26s0.475,0.402,0.615,0.689s0.21,0.602,0.21,0.941c0,0.096-0.031,0.176-0.094,0.24   s-0.146,0.098-0.251,0.098h-2.542c0.04,0.35,0.17,0.623,0.39,0.816c0.22,0.195,0.528,0.293,0.923,0.293   c0.21,0,0.394-0.02,0.551-0.059c0.157-0.041,0.311-0.098,0.461-0.174c0.04-0.02,0.085-0.029,0.135-0.029   C85.261,78.082,85.331,78.109,85.391,78.164z M83.321,75.701c-0.165,0.076-0.303,0.197-0.413,0.363   c-0.11,0.164-0.173,0.369-0.188,0.615h2.212c-0.015-0.246-0.079-0.451-0.191-0.615c-0.112-0.166-0.251-0.287-0.416-0.363   c-0.165-0.078-0.333-0.117-0.502-0.117C83.653,75.584,83.486,75.623,83.321,75.701z"
   id="path238881" />
	<path
   fill="#232323"
   d="M91.169,75.217c0.237,0.141,0.413,0.32,0.525,0.543c0.113,0.223,0.169,0.465,0.169,0.725v2.123   c0,0.094-0.034,0.174-0.102,0.24c-0.067,0.064-0.148,0.096-0.244,0.096c-0.095,0-0.175-0.031-0.24-0.096   c-0.065-0.066-0.098-0.146-0.098-0.24v-0.195c-0.37,0.379-0.84,0.57-1.41,0.57c-0.22,0-0.423-0.045-0.611-0.135   c-0.188-0.092-0.336-0.223-0.446-0.395c-0.11-0.172-0.165-0.371-0.165-0.596c0-0.371,0.146-0.666,0.438-0.885   c0.292-0.221,0.721-0.33,1.286-0.33h0.908v-0.061c0-0.33-0.082-0.568-0.244-0.713c-0.163-0.145-0.417-0.217-0.761-0.217   c-0.19,0-0.359,0.014-0.506,0.045c-0.147,0.029-0.311,0.074-0.491,0.135c-0.04,0.01-0.073,0.016-0.098,0.016   c-0.075,0-0.14-0.029-0.195-0.084c-0.055-0.055-0.083-0.121-0.083-0.201c0-0.137,0.065-0.23,0.195-0.285   c0.425-0.18,0.857-0.271,1.298-0.271C90.641,75.006,90.932,75.076,91.169,75.217z M90.663,78.221   c0.205-0.107,0.377-0.242,0.518-0.402v-0.629h-0.817c-0.755,0-1.133,0.197-1.133,0.592c0,0.18,0.062,0.326,0.184,0.436   s0.326,0.164,0.611,0.164C90.246,78.381,90.458,78.328,90.663,78.221z"
   id="path238883" />
	<path
   fill="#232323"
   d="M96,75.201c0.203,0.131,0.357,0.309,0.465,0.533s0.162,0.473,0.162,0.742v2.131   c0,0.094-0.034,0.174-0.102,0.24c-0.067,0.064-0.149,0.096-0.244,0.096c-0.095,0-0.175-0.031-0.24-0.096   c-0.065-0.066-0.098-0.146-0.098-0.24v-2.057c0-0.609-0.275-0.914-0.825-0.914c-0.25,0-0.474,0.064-0.671,0.195   c-0.198,0.129-0.384,0.305-0.559,0.525v2.25c0,0.094-0.034,0.174-0.101,0.24c-0.067,0.064-0.149,0.096-0.244,0.096   c-0.095,0-0.175-0.031-0.24-0.096c-0.065-0.066-0.098-0.146-0.098-0.24v-3.219c0-0.094,0.033-0.176,0.098-0.244   c0.065-0.066,0.145-0.1,0.24-0.1c0.095,0,0.176,0.033,0.244,0.1c0.067,0.068,0.101,0.15,0.101,0.244v0.309   c0.19-0.211,0.395-0.379,0.615-0.504c0.22-0.125,0.48-0.188,0.78-0.188C95.558,75.006,95.797,75.072,96,75.201z"
   id="path238885" />
	<path
   fill="#232323"
   d="M100.754,75.201c0.203,0.131,0.357,0.309,0.465,0.533s0.162,0.473,0.162,0.742v2.131   c0,0.094-0.034,0.174-0.102,0.24c-0.067,0.064-0.149,0.096-0.244,0.096c-0.095,0-0.175-0.031-0.24-0.096   c-0.065-0.066-0.098-0.146-0.098-0.24v-2.057c0-0.609-0.275-0.914-0.825-0.914c-0.25,0-0.474,0.064-0.671,0.195   c-0.198,0.129-0.384,0.305-0.559,0.525v2.25c0,0.094-0.034,0.174-0.101,0.24c-0.067,0.064-0.149,0.096-0.244,0.096   c-0.095,0-0.175-0.031-0.24-0.096c-0.065-0.066-0.098-0.146-0.098-0.24v-3.219c0-0.094,0.033-0.176,0.098-0.244   c0.065-0.066,0.145-0.1,0.24-0.1c0.095,0,0.176,0.033,0.244,0.1c0.067,0.068,0.101,0.15,0.101,0.244v0.309   c0.19-0.211,0.395-0.379,0.615-0.504c0.22-0.125,0.48-0.188,0.78-0.188C100.313,75.006,100.552,75.072,100.754,75.201z"
   id="path238887" />
	<path
   fill="#232323"
   d="M103.312,78.787c-0.203-0.131-0.358-0.309-0.465-0.533s-0.161-0.473-0.161-0.742v-2.131   c0-0.094,0.034-0.174,0.101-0.238c0.068-0.066,0.149-0.098,0.244-0.098c0.095,0,0.175,0.031,0.24,0.098   c0.065,0.064,0.098,0.145,0.098,0.238v2.057c0,0.609,0.275,0.914,0.825,0.914c0.25,0,0.474-0.064,0.671-0.195   c0.197-0.129,0.384-0.305,0.559-0.525v-2.25c0-0.094,0.034-0.174,0.102-0.238c0.067-0.066,0.148-0.098,0.244-0.098   c0.095,0,0.175,0.031,0.24,0.098c0.065,0.064,0.098,0.145,0.098,0.238V78.6c0,0.094-0.033,0.176-0.098,0.244   c-0.065,0.066-0.145,0.1-0.24,0.1c-0.095,0-0.176-0.033-0.244-0.1c-0.067-0.068-0.102-0.15-0.102-0.244v-0.309   c-0.19,0.211-0.395,0.379-0.615,0.504c-0.22,0.125-0.48,0.188-0.78,0.188C103.753,78.982,103.514,78.916,103.312,78.787z"
   id="path238889" />
	<path
   fill="#232323"
   d="M109.792,75.217c0.237,0.141,0.413,0.32,0.525,0.543c0.113,0.223,0.169,0.465,0.169,0.725v2.123   c0,0.094-0.034,0.174-0.102,0.24c-0.067,0.064-0.148,0.096-0.244,0.096c-0.095,0-0.175-0.031-0.24-0.096   c-0.065-0.066-0.098-0.146-0.098-0.24v-0.195c-0.37,0.379-0.84,0.57-1.41,0.57c-0.22,0-0.423-0.045-0.611-0.135   c-0.188-0.092-0.336-0.223-0.446-0.395c-0.11-0.172-0.165-0.371-0.165-0.596c0-0.371,0.146-0.666,0.438-0.885   c0.292-0.221,0.721-0.33,1.286-0.33h0.908v-0.061c0-0.33-0.082-0.568-0.244-0.713c-0.163-0.145-0.417-0.217-0.761-0.217   c-0.19,0-0.359,0.014-0.506,0.045c-0.147,0.029-0.311,0.074-0.491,0.135c-0.04,0.01-0.073,0.016-0.098,0.016   c-0.075,0-0.14-0.029-0.195-0.084c-0.055-0.055-0.083-0.121-0.083-0.201c0-0.137,0.065-0.23,0.195-0.285   c0.425-0.18,0.857-0.271,1.298-0.271C109.263,75.006,109.555,75.076,109.792,75.217z M109.286,78.221   c0.205-0.107,0.377-0.242,0.518-0.402v-0.629h-0.817c-0.755,0-1.133,0.197-1.133,0.592c0,0.18,0.062,0.326,0.184,0.436   s0.326,0.164,0.611,0.164C108.868,78.381,109.081,78.328,109.286,78.221z"
   id="path238891" />
	<path
   fill="#232323"
   d="M112.473,73.492c0.065,0.064,0.098,0.146,0.098,0.247v4.868c0,0.094-0.034,0.174-0.101,0.24   c-0.068,0.064-0.149,0.096-0.244,0.096c-0.095,0-0.175-0.031-0.24-0.096c-0.065-0.066-0.098-0.146-0.098-0.24v-4.868   c0-0.095,0.033-0.177,0.098-0.243c0.065-0.068,0.145-0.102,0.24-0.102C112.326,73.395,112.408,73.427,112.473,73.492z"
   id="path238893" />
	<path
   fill="#232323"
   d="M117.262,74.152c-0.103,0.094-0.154,0.268-0.154,0.518v0.412h0.938c0.085,0,0.155,0.027,0.21,0.082   s0.083,0.125,0.083,0.211c0,0.08-0.027,0.148-0.083,0.205c-0.055,0.059-0.125,0.086-0.21,0.086h-0.938v2.941   c0,0.094-0.034,0.174-0.101,0.24c-0.068,0.064-0.149,0.096-0.244,0.096c-0.095,0-0.175-0.031-0.24-0.096   c-0.065-0.066-0.098-0.146-0.098-0.24v-2.941h-0.442c-0.08,0-0.149-0.027-0.207-0.086c-0.057-0.057-0.086-0.125-0.086-0.205   c0-0.086,0.029-0.156,0.086-0.211c0.058-0.055,0.126-0.082,0.207-0.082h0.442v-0.436c0-0.3,0.054-0.546,0.161-0.738   c0.107-0.193,0.248-0.332,0.42-0.42c0.172-0.088,0.354-0.131,0.543-0.131c0.235,0,0.453,0.049,0.652,0.149   c0.05,0.024,0.091,0.062,0.124,0.108c0.032,0.048,0.049,0.1,0.049,0.154c0,0.074-0.028,0.141-0.083,0.198   c-0.055,0.058-0.12,0.087-0.195,0.087c-0.055,0-0.112-0.008-0.172-0.023c-0.12-0.015-0.188-0.021-0.203-0.021   C117.518,74.01,117.364,74.057,117.262,74.152z"
   id="path238895" />
	<path
   fill="#232323"
   d="M121.312,75.104c0.063,0.066,0.094,0.146,0.094,0.24c0,0.096-0.032,0.174-0.097,0.232   c-0.065,0.061-0.147,0.09-0.248,0.09h-0.038c-0.24,0-0.46,0.059-0.66,0.178c-0.2,0.117-0.367,0.277-0.502,0.482v2.281   c0,0.094-0.034,0.174-0.101,0.24c-0.067,0.064-0.149,0.096-0.244,0.096c-0.095,0-0.175-0.031-0.24-0.096   c-0.065-0.066-0.098-0.146-0.098-0.24v-3.219c0-0.094,0.033-0.176,0.098-0.244c0.065-0.066,0.145-0.1,0.24-0.1   c0.095,0,0.176,0.033,0.244,0.1c0.067,0.068,0.101,0.15,0.101,0.244v0.322c0.35-0.469,0.743-0.705,1.178-0.705h0.038   C121.17,75.006,121.249,75.039,121.312,75.104z"
   id="path238897" />
	<path
   fill="#232323"
   d="M125.403,78.164c0.06,0.055,0.09,0.125,0.09,0.211c0,0.109-0.065,0.201-0.195,0.277   c-0.195,0.109-0.388,0.191-0.578,0.246c-0.19,0.057-0.435,0.084-0.735,0.084c-0.61,0-1.086-0.174-1.429-0.521   c-0.343-0.348-0.514-0.836-0.514-1.467c0-0.355,0.065-0.682,0.195-0.982s0.33-0.543,0.6-0.727c0.27-0.186,0.603-0.279,0.998-0.279   c0.37,0,0.69,0.088,0.96,0.26s0.475,0.402,0.615,0.689s0.21,0.602,0.21,0.941c0,0.096-0.031,0.176-0.094,0.24   s-0.146,0.098-0.251,0.098h-2.542c0.04,0.35,0.17,0.623,0.39,0.816c0.22,0.195,0.528,0.293,0.923,0.293   c0.21,0,0.394-0.02,0.551-0.059c0.157-0.041,0.311-0.098,0.461-0.174c0.04-0.02,0.085-0.029,0.135-0.029   C125.273,78.082,125.343,78.109,125.403,78.164z M123.333,75.701c-0.165,0.076-0.303,0.197-0.413,0.363   c-0.11,0.164-0.173,0.369-0.188,0.615h2.212c-0.015-0.246-0.079-0.451-0.191-0.615c-0.112-0.166-0.251-0.287-0.416-0.363   c-0.165-0.078-0.333-0.117-0.502-0.117C123.665,75.584,123.498,75.623,123.333,75.701z"
   id="path238899" />
	<path
   fill="#232323"
   d="M129.865,78.164c0.06,0.055,0.09,0.125,0.09,0.211c0,0.109-0.065,0.201-0.195,0.277   c-0.195,0.109-0.388,0.191-0.578,0.246c-0.19,0.057-0.435,0.084-0.735,0.084c-0.61,0-1.086-0.174-1.429-0.521   c-0.343-0.348-0.514-0.836-0.514-1.467c0-0.355,0.065-0.682,0.195-0.982s0.33-0.543,0.6-0.727c0.27-0.186,0.603-0.279,0.998-0.279   c0.37,0,0.69,0.088,0.96,0.26s0.475,0.402,0.615,0.689s0.21,0.602,0.21,0.941c0,0.096-0.031,0.176-0.094,0.24   s-0.146,0.098-0.251,0.098h-2.542c0.04,0.35,0.17,0.623,0.39,0.816c0.22,0.195,0.528,0.293,0.923,0.293   c0.21,0,0.394-0.02,0.551-0.059c0.157-0.041,0.311-0.098,0.461-0.174c0.04-0.02,0.085-0.029,0.135-0.029   C129.735,78.082,129.805,78.109,129.865,78.164z M127.795,75.701c-0.165,0.076-0.303,0.197-0.413,0.363   c-0.11,0.164-0.173,0.369-0.188,0.615h2.212c-0.015-0.246-0.079-0.451-0.191-0.615c-0.112-0.166-0.251-0.287-0.416-0.363   c-0.165-0.078-0.333-0.117-0.502-0.117C128.127,75.584,127.96,75.623,127.795,75.701z"
   id="path238901" />
	<path
   fill="#232323"
   d="M135.644,75.217c0.237,0.141,0.413,0.32,0.525,0.543c0.113,0.223,0.169,0.465,0.169,0.725v2.123   c0,0.094-0.034,0.174-0.102,0.24c-0.067,0.064-0.148,0.096-0.244,0.096c-0.095,0-0.175-0.031-0.24-0.096   c-0.065-0.066-0.098-0.146-0.098-0.24v-0.195c-0.37,0.379-0.84,0.57-1.41,0.57c-0.22,0-0.423-0.045-0.611-0.135   c-0.188-0.092-0.336-0.223-0.446-0.395c-0.11-0.172-0.165-0.371-0.165-0.596c0-0.371,0.146-0.666,0.438-0.885   c0.292-0.221,0.721-0.33,1.286-0.33h0.908v-0.061c0-0.33-0.082-0.568-0.244-0.713c-0.163-0.145-0.417-0.217-0.761-0.217   c-0.19,0-0.359,0.014-0.506,0.045c-0.147,0.029-0.311,0.074-0.491,0.135c-0.04,0.01-0.073,0.016-0.098,0.016   c-0.075,0-0.14-0.029-0.195-0.084c-0.055-0.055-0.083-0.121-0.083-0.201c0-0.137,0.065-0.23,0.195-0.285   c0.425-0.18,0.857-0.271,1.298-0.271C135.115,75.006,135.407,75.076,135.644,75.217z M135.138,78.221   c0.205-0.107,0.377-0.242,0.518-0.402v-0.629h-0.817c-0.755,0-1.133,0.197-1.133,0.592c0,0.18,0.062,0.326,0.184,0.436   s0.326,0.164,0.611,0.164C134.72,78.381,134.933,78.328,135.138,78.221z"
   id="path238903" />
	<path
   fill="#232323"
   d="M140.474,75.201c0.203,0.131,0.357,0.309,0.465,0.533s0.162,0.473,0.162,0.742v2.131   c0,0.094-0.034,0.174-0.102,0.24c-0.067,0.064-0.149,0.096-0.244,0.096c-0.095,0-0.175-0.031-0.24-0.096   c-0.065-0.066-0.098-0.146-0.098-0.24v-2.057c0-0.609-0.275-0.914-0.825-0.914c-0.25,0-0.474,0.064-0.671,0.195   c-0.198,0.129-0.384,0.305-0.559,0.525v2.25c0,0.094-0.034,0.174-0.101,0.24c-0.067,0.064-0.149,0.096-0.244,0.096   c-0.095,0-0.175-0.031-0.24-0.096c-0.065-0.066-0.098-0.146-0.098-0.24v-3.219c0-0.094,0.033-0.176,0.098-0.244   c0.065-0.066,0.145-0.1,0.24-0.1c0.095,0,0.176,0.033,0.244,0.1c0.067,0.068,0.101,0.15,0.101,0.244v0.309   c0.19-0.211,0.395-0.379,0.615-0.504c0.22-0.125,0.48-0.188,0.78-0.188C140.033,75.006,140.271,75.072,140.474,75.201z"
   id="path238905" />
	<path
   fill="#232323"
   d="M145.299,75.576v-1.837c0-0.101,0.035-0.183,0.102-0.247c0.068-0.065,0.148-0.098,0.244-0.098   s0.176,0.033,0.24,0.102c0.064,0.066,0.098,0.148,0.098,0.243v4.868c0,0.094-0.033,0.174-0.098,0.24   c-0.064,0.064-0.145,0.096-0.24,0.096s-0.176-0.031-0.244-0.096c-0.066-0.066-0.102-0.146-0.102-0.24v-0.195   c-0.363,0.379-0.791,0.57-1.281,0.57c-0.311,0-0.604-0.08-0.881-0.236c-0.277-0.158-0.504-0.389-0.676-0.691   c-0.172-0.301-0.259-0.656-0.259-1.061s0.086-0.758,0.259-1.061c0.172-0.303,0.398-0.533,0.676-0.691   c0.277-0.156,0.57-0.236,0.881-0.236C144.508,75.006,144.936,75.197,145.299,75.576z M144.764,78.191   c0.203-0.104,0.381-0.24,0.535-0.41v-1.574c-0.154-0.17-0.332-0.307-0.535-0.408c-0.203-0.104-0.42-0.154-0.648-0.154   c-0.371,0-0.668,0.117-0.893,0.352c-0.225,0.236-0.338,0.568-0.338,0.998s0.113,0.762,0.338,0.998   c0.225,0.234,0.521,0.352,0.893,0.352C144.344,78.344,144.561,78.293,144.764,78.191z"
   id="path238907" />
	<path
   fill="#232323"
   stroke="#232323"
   stroke-width="0.25"
   stroke-miterlimit="10"
   d="M75.469,82.254   c0.29,0.166,0.515,0.398,0.675,0.701s0.24,0.648,0.24,1.039s-0.08,0.736-0.24,1.039s-0.385,0.535-0.675,0.701   c-0.29,0.164-0.625,0.248-1.005,0.248c-0.385,0-0.722-0.084-1.012-0.248c-0.29-0.166-0.514-0.398-0.671-0.701   c-0.157-0.303-0.236-0.648-0.236-1.039s0.079-0.736,0.236-1.039c0.158-0.303,0.381-0.535,0.671-0.701   c0.29-0.164,0.627-0.248,1.012-0.248C74.844,82.006,75.179,82.09,75.469,82.254z M75.052,85.217   c0.188-0.096,0.342-0.244,0.465-0.449c0.122-0.205,0.184-0.467,0.184-0.781c0-0.309-0.062-0.566-0.184-0.771   c-0.123-0.205-0.278-0.354-0.465-0.447c-0.188-0.092-0.384-0.139-0.589-0.139c-0.21,0-0.409,0.047-0.596,0.139   c-0.188,0.094-0.341,0.242-0.461,0.447c-0.12,0.205-0.18,0.463-0.18,0.771c0,0.314,0.06,0.576,0.18,0.781   c0.12,0.205,0.273,0.354,0.461,0.449s0.386,0.143,0.596,0.143C74.668,85.359,74.865,85.313,75.052,85.217z"
   id="path238909" />
	<path
   fill="#232323"
   stroke="#232323"
   stroke-width="0.25"
   stroke-miterlimit="10"
   d="M77.891,85.412v1.912   c0,0.1-0.033,0.182-0.097,0.248c-0.065,0.064-0.148,0.098-0.248,0.098c-0.095,0-0.175-0.035-0.24-0.102   c-0.065-0.068-0.098-0.148-0.098-0.244v-4.943c0-0.094,0.033-0.174,0.098-0.238c0.065-0.066,0.145-0.098,0.24-0.098   c0.095,0,0.176,0.031,0.244,0.098c0.067,0.064,0.101,0.145,0.101,0.238v0.195c0.365-0.379,0.792-0.57,1.283-0.57   c0.31,0,0.604,0.08,0.881,0.236c0.277,0.158,0.502,0.389,0.675,0.691s0.259,0.656,0.259,1.061s-0.086,0.76-0.259,1.061   c-0.172,0.303-0.397,0.533-0.675,0.691c-0.278,0.156-0.571,0.236-0.881,0.236C78.684,85.982,78.256,85.791,77.891,85.412z    M78.427,82.799c-0.202,0.102-0.381,0.238-0.536,0.408v1.574c0.155,0.17,0.334,0.307,0.536,0.41   c0.203,0.102,0.419,0.152,0.649,0.152c0.37,0,0.667-0.117,0.893-0.352c0.225-0.236,0.337-0.568,0.337-0.998   s-0.112-0.762-0.337-0.998c-0.225-0.234-0.522-0.352-0.893-0.352C78.846,82.645,78.63,82.695,78.427,82.799z"
   id="path238911" />
	<path
   fill="#232323"
   stroke="#232323"
   stroke-width="0.25"
   stroke-miterlimit="10"
   d="M84.949,85.164   c0.06,0.055,0.09,0.125,0.09,0.211c0,0.109-0.065,0.201-0.195,0.277c-0.195,0.109-0.388,0.191-0.578,0.246   c-0.19,0.057-0.435,0.084-0.735,0.084c-0.61,0-1.086-0.174-1.429-0.521c-0.343-0.348-0.514-0.836-0.514-1.467   c0-0.355,0.065-0.682,0.195-0.982s0.33-0.543,0.6-0.727c0.27-0.186,0.603-0.279,0.998-0.279c0.37,0,0.69,0.088,0.96,0.26   s0.475,0.402,0.615,0.689s0.21,0.602,0.21,0.941c0,0.096-0.031,0.176-0.094,0.24s-0.146,0.098-0.251,0.098h-2.542   c0.04,0.35,0.17,0.623,0.39,0.816c0.22,0.195,0.528,0.293,0.923,0.293c0.21,0,0.394-0.02,0.551-0.059   c0.157-0.041,0.311-0.098,0.461-0.174c0.04-0.02,0.085-0.029,0.135-0.029C84.819,85.082,84.889,85.109,84.949,85.164z    M82.879,82.701c-0.165,0.076-0.303,0.197-0.413,0.363c-0.11,0.164-0.173,0.369-0.188,0.615h2.212   c-0.015-0.246-0.079-0.451-0.191-0.615c-0.112-0.166-0.251-0.287-0.416-0.363c-0.165-0.078-0.333-0.117-0.502-0.117   C83.211,82.584,83.043,82.623,82.879,82.701z"
   id="path238913" />
	<path
   fill="#232323"
   stroke="#232323"
   stroke-width="0.25"
   stroke-miterlimit="10"
   d="M88.755,82.201   c0.203,0.131,0.357,0.309,0.465,0.533s0.162,0.473,0.162,0.742v2.131c0,0.094-0.034,0.174-0.102,0.24   c-0.067,0.064-0.149,0.096-0.244,0.096c-0.095,0-0.175-0.031-0.24-0.096c-0.065-0.066-0.098-0.146-0.098-0.24v-2.057   c0-0.609-0.275-0.914-0.825-0.914c-0.25,0-0.474,0.064-0.671,0.195c-0.198,0.129-0.384,0.305-0.559,0.525v2.25   c0,0.094-0.034,0.174-0.101,0.24c-0.067,0.064-0.149,0.096-0.244,0.096c-0.095,0-0.175-0.031-0.24-0.096   c-0.065-0.066-0.098-0.146-0.098-0.24v-3.219c0-0.094,0.033-0.176,0.098-0.244c0.065-0.066,0.145-0.1,0.24-0.1   c0.095,0,0.176,0.033,0.244,0.1c0.067,0.068,0.101,0.15,0.101,0.244v0.309c0.19-0.211,0.395-0.379,0.615-0.504   c0.22-0.125,0.48-0.188,0.78-0.188C88.313,82.006,88.552,82.072,88.755,82.201z"
   id="path238915" />
	<path
   fill="#232323"
   stroke="#232323"
   stroke-width="0.25"
   stroke-miterlimit="10"
   d="M92.883,83.484   c0.14,0.07,0.357,0.137,0.652,0.203c0.295,0.074,0.535,0.148,0.72,0.221s0.344,0.186,0.476,0.342   c0.133,0.154,0.199,0.361,0.199,0.621c0,0.32-0.126,0.586-0.378,0.795c-0.252,0.211-0.609,0.316-1.069,0.316   c-0.5,0-0.955-0.113-1.365-0.338c-0.085-0.061-0.127-0.143-0.127-0.248c0-0.08,0.027-0.15,0.083-0.209   c0.055-0.061,0.125-0.09,0.21-0.09c0.045,0,0.09,0.01,0.135,0.029c0.16,0.07,0.32,0.125,0.48,0.164   c0.16,0.041,0.34,0.061,0.54,0.061c0.555,0,0.833-0.178,0.833-0.533c0-0.113-0.064-0.201-0.191-0.262s-0.336-0.127-0.626-0.203   c-0.295-0.068-0.539-0.143-0.731-0.217s-0.357-0.189-0.495-0.342s-0.206-0.354-0.206-0.604c0-0.35,0.126-0.635,0.378-0.855   c0.252-0.219,0.614-0.33,1.084-0.33c0.385,0,0.748,0.063,1.087,0.188c0.07,0.021,0.124,0.059,0.161,0.113   c0.038,0.055,0.057,0.113,0.057,0.172c0,0.08-0.029,0.15-0.086,0.211s-0.129,0.09-0.214,0.09c-0.025,0-0.058-0.006-0.098-0.016   c-0.29-0.09-0.575-0.135-0.855-0.135c-0.27,0-0.481,0.049-0.633,0.146c-0.153,0.098-0.229,0.225-0.229,0.379   C92.673,83.305,92.743,83.414,92.883,83.484z"
   id="path238917" />
	<path
   fill="#232323"
   stroke="#232323"
   stroke-width="0.25"
   stroke-miterlimit="10"
   d="M98.389,82.254   c0.29,0.166,0.515,0.398,0.675,0.701s0.24,0.648,0.24,1.039s-0.08,0.736-0.24,1.039s-0.385,0.535-0.675,0.701   c-0.29,0.164-0.625,0.248-1.005,0.248c-0.385,0-0.722-0.084-1.012-0.248c-0.29-0.166-0.514-0.398-0.671-0.701   c-0.157-0.303-0.236-0.648-0.236-1.039s0.079-0.736,0.236-1.039c0.158-0.303,0.381-0.535,0.671-0.701   c0.29-0.164,0.627-0.248,1.012-0.248C97.764,82.006,98.099,82.09,98.389,82.254z M97.972,85.217   c0.188-0.096,0.342-0.244,0.465-0.449c0.122-0.205,0.184-0.467,0.184-0.781c0-0.309-0.062-0.566-0.184-0.771   c-0.123-0.205-0.278-0.354-0.465-0.447c-0.188-0.092-0.384-0.139-0.589-0.139c-0.21,0-0.409,0.047-0.596,0.139   c-0.188,0.094-0.341,0.242-0.461,0.447c-0.12,0.205-0.18,0.463-0.18,0.771c0,0.314,0.06,0.576,0.18,0.781   c0.12,0.205,0.273,0.354,0.461,0.449s0.386,0.143,0.596,0.143C97.588,85.359,97.785,85.313,97.972,85.217z"
   id="path238919" />
	<path
   fill="#232323"
   stroke="#232323"
   stroke-width="0.25"
   stroke-miterlimit="10"
   d="M100.725,85.787   c-0.203-0.131-0.358-0.309-0.465-0.533s-0.161-0.473-0.161-0.742v-2.131c0-0.094,0.034-0.174,0.101-0.238   c0.068-0.066,0.149-0.098,0.244-0.098c0.095,0,0.175,0.031,0.24,0.098c0.065,0.064,0.098,0.145,0.098,0.238v2.057   c0,0.609,0.275,0.914,0.825,0.914c0.25,0,0.474-0.064,0.671-0.195c0.197-0.129,0.384-0.305,0.559-0.525v-2.25   c0-0.094,0.034-0.174,0.102-0.238c0.067-0.066,0.148-0.098,0.244-0.098c0.095,0,0.175,0.031,0.24,0.098   c0.065,0.064,0.098,0.145,0.098,0.238V85.6c0,0.094-0.033,0.176-0.098,0.244c-0.065,0.066-0.145,0.1-0.24,0.1   c-0.095,0-0.176-0.033-0.244-0.1c-0.067-0.068-0.102-0.15-0.102-0.244v-0.309c-0.19,0.211-0.395,0.379-0.615,0.504   c-0.22,0.125-0.48,0.188-0.78,0.188C101.166,85.982,100.927,85.916,100.725,85.787z"
   id="path238921" />
	<path
   fill="#232323"
   stroke="#232323"
   stroke-width="0.25"
   stroke-miterlimit="10"
   d="M106.709,82.104   c0.063,0.066,0.094,0.146,0.094,0.24c0,0.096-0.032,0.174-0.097,0.232c-0.065,0.061-0.147,0.09-0.248,0.09h-0.038   c-0.24,0-0.46,0.059-0.66,0.178c-0.2,0.117-0.367,0.277-0.502,0.482v2.281c0,0.094-0.034,0.174-0.101,0.24   c-0.067,0.064-0.149,0.096-0.244,0.096c-0.095,0-0.175-0.031-0.24-0.096c-0.065-0.066-0.098-0.146-0.098-0.24v-3.219   c0-0.094,0.033-0.176,0.098-0.244c0.065-0.066,0.145-0.1,0.24-0.1c0.095,0,0.176,0.033,0.244,0.1   c0.067,0.068,0.101,0.15,0.101,0.244v0.322c0.35-0.469,0.743-0.705,1.178-0.705h0.038   C106.568,82.006,106.646,82.039,106.709,82.104z"
   id="path238923" />
	<path
   fill="#232323"
   stroke="#232323"
   stroke-width="0.25"
   stroke-miterlimit="10"
   d="M110.392,85.152   c0.058,0.063,0.086,0.133,0.086,0.207c0,0.109-0.05,0.197-0.15,0.262c-0.165,0.105-0.344,0.191-0.536,0.26   c-0.192,0.066-0.421,0.102-0.686,0.102c-0.36,0-0.693-0.08-0.998-0.24c-0.305-0.16-0.549-0.391-0.731-0.691   c-0.183-0.299-0.273-0.652-0.273-1.057s0.091-0.758,0.273-1.057c0.183-0.301,0.426-0.531,0.731-0.691   c0.305-0.16,0.637-0.24,0.998-0.24c0.265,0,0.494,0.035,0.686,0.102c0.192,0.068,0.371,0.154,0.536,0.26   c0.1,0.064,0.15,0.152,0.15,0.262c0,0.076-0.029,0.145-0.086,0.207s-0.124,0.094-0.199,0.094c-0.055,0-0.11-0.016-0.165-0.045   c-0.165-0.086-0.306-0.146-0.424-0.184c-0.118-0.039-0.264-0.057-0.438-0.057c-0.43,0-0.768,0.123-1.013,0.371   s-0.368,0.574-0.368,0.979s0.123,0.73,0.368,0.979s0.583,0.371,1.013,0.371c0.175,0,0.321-0.018,0.438-0.057   c0.118-0.037,0.259-0.098,0.424-0.184c0.055-0.029,0.11-0.045,0.165-0.045C110.268,85.059,110.334,85.09,110.392,85.152z"
   id="path238925" />
	<path
   fill="#232323"
   stroke="#232323"
   stroke-width="0.25"
   stroke-miterlimit="10"
   d="M114.348,85.164   c0.06,0.055,0.09,0.125,0.09,0.211c0,0.109-0.065,0.201-0.195,0.277c-0.195,0.109-0.388,0.191-0.578,0.246   c-0.19,0.057-0.435,0.084-0.735,0.084c-0.61,0-1.086-0.174-1.429-0.521c-0.343-0.348-0.514-0.836-0.514-1.467   c0-0.355,0.065-0.682,0.195-0.982s0.33-0.543,0.6-0.727c0.27-0.186,0.603-0.279,0.998-0.279c0.37,0,0.69,0.088,0.96,0.26   s0.475,0.402,0.615,0.689s0.21,0.602,0.21,0.941c0,0.096-0.031,0.176-0.094,0.24s-0.146,0.098-0.251,0.098h-2.542   c0.04,0.35,0.17,0.623,0.39,0.816c0.22,0.195,0.528,0.293,0.923,0.293c0.21,0,0.394-0.02,0.551-0.059   c0.157-0.041,0.311-0.098,0.461-0.174c0.04-0.02,0.085-0.029,0.135-0.029C114.218,85.082,114.288,85.109,114.348,85.164z    M112.278,82.701c-0.165,0.076-0.303,0.197-0.413,0.363c-0.11,0.164-0.173,0.369-0.188,0.615h2.212   c-0.015-0.246-0.079-0.451-0.191-0.615c-0.112-0.166-0.251-0.287-0.416-0.363c-0.165-0.078-0.333-0.117-0.502-0.117   C112.61,82.584,112.443,82.623,112.278,82.701z"
   id="path238927" />
	<path
   fill="#232323"
   stroke="#232323"
   stroke-width="0.25"
   stroke-miterlimit="10"
   d="M117.843,83.484   c0.14,0.07,0.357,0.137,0.652,0.203c0.295,0.074,0.535,0.148,0.72,0.221s0.344,0.186,0.476,0.342   c0.133,0.154,0.199,0.361,0.199,0.621c0,0.32-0.126,0.586-0.378,0.795c-0.252,0.211-0.609,0.316-1.069,0.316   c-0.5,0-0.955-0.113-1.365-0.338c-0.085-0.061-0.127-0.143-0.127-0.248c0-0.08,0.027-0.15,0.083-0.209   c0.055-0.061,0.125-0.09,0.21-0.09c0.045,0,0.09,0.01,0.135,0.029c0.16,0.07,0.32,0.125,0.48,0.164   c0.16,0.041,0.34,0.061,0.54,0.061c0.555,0,0.833-0.178,0.833-0.533c0-0.113-0.064-0.201-0.191-0.262s-0.336-0.127-0.626-0.203   c-0.295-0.068-0.539-0.143-0.731-0.217s-0.357-0.189-0.495-0.342s-0.206-0.354-0.206-0.604c0-0.35,0.126-0.635,0.378-0.855   c0.252-0.219,0.614-0.33,1.084-0.33c0.385,0,0.748,0.063,1.087,0.188c0.07,0.021,0.124,0.059,0.161,0.113   c0.038,0.055,0.057,0.113,0.057,0.172c0,0.08-0.029,0.15-0.086,0.211s-0.129,0.09-0.214,0.09c-0.025,0-0.058-0.006-0.098-0.016   c-0.29-0.09-0.575-0.135-0.855-0.135c-0.27,0-0.481,0.049-0.633,0.146c-0.153,0.098-0.229,0.225-0.229,0.379   C117.633,83.305,117.703,83.414,117.843,83.484z"
   id="path238929" />
	<path
   fill="#232323"
   stroke="#232323"
   stroke-width="0.25"
   stroke-miterlimit="10"
   d="M123.348,82.254   c0.29,0.166,0.515,0.398,0.675,0.701s0.24,0.648,0.24,1.039s-0.08,0.736-0.24,1.039s-0.385,0.535-0.675,0.701   c-0.29,0.164-0.625,0.248-1.005,0.248c-0.385,0-0.722-0.084-1.012-0.248c-0.29-0.166-0.514-0.398-0.671-0.701   c-0.157-0.303-0.236-0.648-0.236-1.039s0.079-0.736,0.236-1.039c0.158-0.303,0.381-0.535,0.671-0.701   c0.29-0.164,0.627-0.248,1.012-0.248C122.723,82.006,123.058,82.09,123.348,82.254z M122.932,85.217   c0.188-0.096,0.342-0.244,0.465-0.449c0.122-0.205,0.184-0.467,0.184-0.781c0-0.309-0.062-0.566-0.184-0.771   c-0.123-0.205-0.278-0.354-0.465-0.447c-0.188-0.092-0.384-0.139-0.589-0.139c-0.21,0-0.409,0.047-0.596,0.139   c-0.188,0.094-0.341,0.242-0.461,0.447c-0.12,0.205-0.18,0.463-0.18,0.771c0,0.314,0.06,0.576,0.18,0.781   c0.12,0.205,0.273,0.354,0.461,0.449s0.386,0.143,0.596,0.143C122.548,85.359,122.744,85.313,122.932,85.217z"
   id="path238931" />
	<path
   fill="#232323"
   stroke="#232323"
   stroke-width="0.25"
   stroke-miterlimit="10"
   d="M126.172,81.152   c-0.103,0.094-0.154,0.268-0.154,0.518v0.412h0.938c0.085,0,0.155,0.027,0.21,0.082s0.083,0.125,0.083,0.211   c0,0.08-0.027,0.148-0.083,0.205c-0.055,0.059-0.125,0.086-0.21,0.086h-0.938v2.941c0,0.094-0.034,0.174-0.101,0.24   c-0.068,0.064-0.149,0.096-0.244,0.096c-0.095,0-0.175-0.031-0.24-0.096c-0.065-0.066-0.098-0.146-0.098-0.24v-2.941h-0.442   c-0.08,0-0.149-0.027-0.207-0.086c-0.057-0.057-0.086-0.125-0.086-0.205c0-0.086,0.029-0.156,0.086-0.211   c0.058-0.055,0.126-0.082,0.207-0.082h0.442v-0.436c0-0.299,0.054-0.547,0.161-0.738c0.107-0.193,0.248-0.332,0.42-0.42   c0.172-0.088,0.354-0.131,0.543-0.131c0.235,0,0.453,0.049,0.652,0.148c0.05,0.025,0.091,0.063,0.124,0.109   c0.032,0.047,0.049,0.1,0.049,0.154c0,0.074-0.028,0.141-0.083,0.199c-0.055,0.057-0.12,0.086-0.195,0.086   c-0.055,0-0.112-0.008-0.172-0.023c-0.12-0.014-0.188-0.021-0.203-0.021C126.428,81.01,126.274,81.057,126.172,81.152z"
   id="path238933" />
	<path
   fill="#232323"
   stroke="#232323"
   stroke-width="0.25"
   stroke-miterlimit="10"
   d="M129.985,85.393   c0.055,0.053,0.083,0.117,0.083,0.191c0,0.115-0.058,0.203-0.172,0.264c-0.195,0.09-0.403,0.135-0.623,0.135   c-0.73,0-1.095-0.33-1.095-0.99v-2.326h-0.532c-0.04,0-0.074-0.014-0.102-0.041c-0.027-0.027-0.041-0.061-0.041-0.102   c0-0.049,0.022-0.092,0.067-0.127l1.02-0.998c0.045-0.045,0.087-0.066,0.127-0.066s0.074,0.016,0.102,0.045   c0.027,0.029,0.041,0.064,0.041,0.105v0.6h0.848c0.085,0,0.155,0.027,0.21,0.082c0.055,0.055,0.083,0.125,0.083,0.211   c0,0.08-0.028,0.148-0.083,0.205c-0.055,0.059-0.125,0.086-0.21,0.086h-0.848v2.266c0,0.195,0.046,0.318,0.139,0.371   c0.093,0.053,0.209,0.078,0.349,0.078c0.1,0,0.2-0.014,0.3-0.045c0.02-0.004,0.041-0.01,0.063-0.014   c0.023-0.006,0.051-0.008,0.086-0.008C129.868,85.314,129.93,85.34,129.985,85.393z"
   id="path238935" />
	<path
   fill="#232323"
   stroke="#232323"
   stroke-width="0.25"
   stroke-miterlimit="10"
   d="M135.7,82.143   c0.065,0.064,0.098,0.145,0.098,0.238c0,0.041-0.007,0.084-0.022,0.129l-1.065,3.119c-0.03,0.09-0.085,0.166-0.165,0.225   c-0.08,0.061-0.17,0.09-0.27,0.09s-0.19-0.029-0.27-0.09c-0.08-0.059-0.138-0.137-0.172-0.232l-0.795-2.482l-0.795,2.482   c-0.035,0.096-0.092,0.174-0.172,0.232c-0.08,0.061-0.17,0.09-0.27,0.09s-0.19-0.029-0.27-0.09   c-0.08-0.059-0.135-0.135-0.165-0.225L130.3,82.51c-0.015-0.045-0.022-0.088-0.022-0.129c0-0.094,0.032-0.174,0.098-0.238   c0.065-0.066,0.145-0.098,0.24-0.098c0.07,0,0.134,0.018,0.191,0.055c0.057,0.039,0.096,0.088,0.116,0.146l0.877,2.889l0.87-2.82   c0.025-0.08,0.071-0.145,0.139-0.195s0.144-0.074,0.229-0.074s0.162,0.023,0.229,0.074s0.114,0.115,0.139,0.195l0.87,2.82   l0.877-2.889c0.02-0.059,0.059-0.107,0.116-0.146c0.058-0.037,0.121-0.055,0.191-0.055C135.555,82.045,135.635,82.076,135.7,82.143   z"
   id="path238937" />
	<path
   fill="#232323"
   stroke="#232323"
   stroke-width="0.25"
   stroke-miterlimit="10"
   d="M138.756,82.217   c0.237,0.141,0.413,0.32,0.525,0.543c0.113,0.223,0.169,0.465,0.169,0.725v2.123c0,0.094-0.034,0.174-0.102,0.24   c-0.067,0.064-0.148,0.096-0.244,0.096c-0.095,0-0.175-0.031-0.24-0.096c-0.065-0.066-0.098-0.146-0.098-0.24v-0.195   c-0.37,0.379-0.84,0.57-1.41,0.57c-0.22,0-0.423-0.045-0.611-0.135c-0.188-0.092-0.336-0.223-0.446-0.395   c-0.11-0.172-0.165-0.371-0.165-0.596c0-0.371,0.146-0.666,0.438-0.885c0.292-0.221,0.721-0.33,1.286-0.33h0.908v-0.061   c0-0.33-0.082-0.568-0.244-0.713c-0.163-0.145-0.417-0.217-0.761-0.217c-0.19,0-0.359,0.014-0.506,0.045   c-0.147,0.029-0.311,0.074-0.491,0.135c-0.04,0.01-0.073,0.016-0.098,0.016c-0.075,0-0.14-0.029-0.195-0.084   c-0.055-0.055-0.083-0.121-0.083-0.201c0-0.137,0.065-0.23,0.195-0.285c0.425-0.18,0.857-0.271,1.298-0.271   C138.228,82.006,138.519,82.076,138.756,82.217z M138.25,85.221c0.205-0.107,0.377-0.242,0.518-0.402v-0.629h-0.817   c-0.755,0-1.133,0.197-1.133,0.592c0,0.18,0.062,0.326,0.184,0.436s0.326,0.164,0.611,0.164   C137.833,85.381,138.045,85.328,138.25,85.221z"
   id="path238939" />
	<path
   fill="#232323"
   stroke="#232323"
   stroke-width="0.25"
   stroke-miterlimit="10"
   d="M142.612,82.104   c0.063,0.066,0.094,0.146,0.094,0.24c0,0.096-0.033,0.174-0.098,0.232c-0.065,0.061-0.147,0.09-0.248,0.09h-0.038   c-0.24,0-0.46,0.059-0.66,0.178c-0.2,0.117-0.367,0.277-0.502,0.482v2.281c0,0.094-0.034,0.174-0.101,0.24   c-0.067,0.064-0.149,0.096-0.244,0.096c-0.095,0-0.175-0.031-0.24-0.096c-0.065-0.066-0.098-0.146-0.098-0.24v-3.219   c0-0.094,0.033-0.176,0.098-0.244c0.065-0.066,0.145-0.1,0.24-0.1c0.095,0,0.176,0.033,0.244,0.1   c0.067,0.068,0.101,0.15,0.101,0.244v0.322c0.35-0.469,0.743-0.705,1.178-0.705h0.038C142.47,82.006,142.549,82.039,142.612,82.104   z"
   id="path238941" />
	<path
   fill="#232323"
   stroke="#232323"
   stroke-width="0.25"
   stroke-miterlimit="10"
   d="M146.387,85.164   c0.06,0.055,0.09,0.125,0.09,0.211c0,0.109-0.064,0.201-0.195,0.277c-0.194,0.109-0.387,0.191-0.577,0.246   c-0.19,0.057-0.435,0.084-0.735,0.084c-0.609,0-1.086-0.174-1.429-0.521c-0.342-0.348-0.514-0.836-0.514-1.467   c0-0.355,0.065-0.682,0.195-0.982s0.33-0.543,0.6-0.727c0.271-0.186,0.603-0.279,0.998-0.279c0.37,0,0.689,0.088,0.96,0.26   c0.27,0.172,0.475,0.402,0.615,0.689c0.14,0.287,0.21,0.602,0.21,0.941c0,0.096-0.031,0.176-0.094,0.24s-0.146,0.098-0.252,0.098   h-2.542c0.04,0.35,0.17,0.623,0.39,0.816c0.22,0.195,0.527,0.293,0.923,0.293c0.21,0,0.394-0.02,0.551-0.059   c0.158-0.041,0.312-0.098,0.462-0.174c0.04-0.02,0.085-0.029,0.135-0.029C146.257,85.082,146.328,85.109,146.387,85.164z    M144.317,82.701c-0.165,0.076-0.303,0.197-0.412,0.363c-0.11,0.164-0.173,0.369-0.188,0.615h2.212   c-0.015-0.246-0.078-0.451-0.19-0.615c-0.113-0.166-0.252-0.287-0.417-0.363c-0.165-0.078-0.332-0.117-0.502-0.117   S144.482,82.623,144.317,82.701z"
   id="path238943" />
	<path
   fill="#232323"
   d="M75.817,92.152c0.058,0.063,0.086,0.133,0.086,0.207c0,0.109-0.05,0.197-0.15,0.262   c-0.165,0.105-0.344,0.191-0.536,0.26c-0.192,0.066-0.421,0.102-0.686,0.102c-0.36,0-0.693-0.08-0.998-0.24   c-0.305-0.16-0.549-0.391-0.731-0.691c-0.183-0.299-0.273-0.652-0.273-1.057s0.091-0.758,0.273-1.057   c0.183-0.301,0.426-0.531,0.731-0.691c0.305-0.16,0.637-0.24,0.998-0.24c0.265,0,0.494,0.035,0.686,0.102   c0.192,0.068,0.371,0.154,0.536,0.26c0.1,0.064,0.15,0.152,0.15,0.262c0,0.076-0.029,0.145-0.086,0.207s-0.124,0.094-0.199,0.094   c-0.055,0-0.11-0.016-0.165-0.045c-0.165-0.086-0.306-0.146-0.424-0.184c-0.118-0.039-0.264-0.057-0.438-0.057   c-0.43,0-0.768,0.123-1.013,0.371s-0.368,0.574-0.368,0.979s0.123,0.73,0.368,0.979s0.583,0.371,1.013,0.371   c0.175,0,0.321-0.018,0.438-0.057c0.118-0.037,0.259-0.098,0.424-0.184c0.055-0.029,0.11-0.045,0.165-0.045   C75.693,92.059,75.76,92.09,75.817,92.152z"
   id="path238945" />
	<path
   fill="#232323"
   d="M79.744,89.254c0.29,0.166,0.515,0.398,0.675,0.701s0.24,0.648,0.24,1.039s-0.08,0.736-0.24,1.039   s-0.385,0.535-0.675,0.701c-0.29,0.164-0.625,0.248-1.005,0.248c-0.385,0-0.722-0.084-1.012-0.248   c-0.29-0.166-0.514-0.398-0.671-0.701c-0.157-0.303-0.236-0.648-0.236-1.039s0.079-0.736,0.236-1.039   c0.158-0.303,0.381-0.535,0.671-0.701c0.29-0.164,0.627-0.248,1.012-0.248C79.119,89.006,79.454,89.09,79.744,89.254z    M79.327,92.217c0.188-0.096,0.342-0.244,0.465-0.449c0.122-0.205,0.184-0.467,0.184-0.781c0-0.309-0.062-0.566-0.184-0.771   c-0.123-0.205-0.278-0.354-0.465-0.447c-0.188-0.092-0.384-0.139-0.589-0.139c-0.21,0-0.409,0.047-0.596,0.139   c-0.188,0.094-0.341,0.242-0.461,0.447c-0.12,0.205-0.18,0.463-0.18,0.771c0,0.314,0.06,0.576,0.18,0.781   c0.12,0.205,0.273,0.354,0.461,0.449s0.386,0.143,0.596,0.143C78.943,92.359,79.14,92.313,79.327,92.217z"
   id="path238947" />
	<path
   fill="#232323"
   d="M84.69,89.201c0.203,0.131,0.357,0.309,0.465,0.533s0.162,0.473,0.162,0.742v2.131   c0,0.094-0.034,0.174-0.102,0.24c-0.067,0.064-0.149,0.096-0.244,0.096c-0.095,0-0.175-0.031-0.24-0.096   c-0.065-0.066-0.098-0.146-0.098-0.24v-2.057c0-0.609-0.275-0.914-0.825-0.914c-0.25,0-0.474,0.064-0.671,0.195   c-0.198,0.129-0.384,0.305-0.559,0.525v2.25c0,0.094-0.034,0.174-0.101,0.24c-0.067,0.064-0.149,0.096-0.244,0.096   c-0.095,0-0.175-0.031-0.24-0.096c-0.065-0.066-0.098-0.146-0.098-0.24v-3.219c0-0.094,0.033-0.176,0.098-0.244   c0.065-0.066,0.145-0.1,0.24-0.1c0.095,0,0.176,0.033,0.244,0.1c0.067,0.068,0.101,0.15,0.101,0.244v0.309   c0.19-0.211,0.395-0.379,0.615-0.504c0.22-0.125,0.48-0.188,0.78-0.188C84.249,89.006,84.487,89.072,84.69,89.201z"
   id="path238949" />
	<path
   fill="#232323"
   d="M89.771,89.145c0.065,0.068,0.097,0.15,0.097,0.244c0,0.045-0.012,0.098-0.037,0.158l-1.305,3.119   c-0.035,0.08-0.09,0.146-0.165,0.199s-0.157,0.078-0.248,0.078h-0.075c-0.09,0-0.173-0.025-0.248-0.078   c-0.075-0.053-0.13-0.119-0.165-0.199l-1.305-3.119c-0.025-0.061-0.038-0.113-0.038-0.158c0-0.094,0.033-0.176,0.098-0.244   c0.065-0.066,0.145-0.1,0.24-0.1c0.065,0,0.126,0.018,0.184,0.055c0.057,0.039,0.099,0.084,0.124,0.139l1.147,2.91l1.147-2.91   c0.025-0.055,0.066-0.1,0.124-0.139c0.058-0.037,0.119-0.055,0.184-0.055C89.626,89.045,89.706,89.078,89.771,89.145z"
   id="path238951" />
	<path
   fill="#232323"
   d="M94.023,92.164c0.06,0.055,0.09,0.125,0.09,0.211c0,0.109-0.065,0.201-0.195,0.277   c-0.195,0.109-0.388,0.191-0.578,0.246c-0.19,0.057-0.435,0.084-0.735,0.084c-0.61,0-1.086-0.174-1.429-0.521   c-0.343-0.348-0.514-0.836-0.514-1.467c0-0.355,0.065-0.682,0.195-0.982s0.33-0.543,0.6-0.727c0.27-0.186,0.603-0.279,0.998-0.279   c0.37,0,0.69,0.088,0.96,0.26s0.475,0.402,0.615,0.689s0.21,0.602,0.21,0.941c0,0.096-0.031,0.176-0.094,0.24   s-0.146,0.098-0.251,0.098h-2.542c0.04,0.35,0.17,0.623,0.39,0.816c0.22,0.195,0.528,0.293,0.923,0.293   c0.21,0,0.394-0.02,0.551-0.059c0.157-0.041,0.311-0.098,0.461-0.174c0.04-0.02,0.085-0.029,0.135-0.029   C93.894,92.082,93.963,92.109,94.023,92.164z M91.954,89.701c-0.165,0.076-0.303,0.197-0.413,0.363   c-0.11,0.164-0.173,0.369-0.188,0.615h2.212c-0.015-0.246-0.079-0.451-0.191-0.615c-0.112-0.166-0.251-0.287-0.416-0.363   c-0.165-0.078-0.333-0.117-0.502-0.117C92.286,89.584,92.118,89.623,91.954,89.701z"
   id="path238953" />
	<path
   fill="#232323"
   d="M98.242,89.201c0.203,0.131,0.357,0.309,0.465,0.533s0.162,0.473,0.162,0.742v2.131   c0,0.094-0.034,0.174-0.102,0.24c-0.067,0.064-0.149,0.096-0.244,0.096c-0.095,0-0.175-0.031-0.24-0.096   c-0.065-0.066-0.098-0.146-0.098-0.24v-2.057c0-0.609-0.275-0.914-0.825-0.914c-0.25,0-0.474,0.064-0.671,0.195   c-0.198,0.129-0.384,0.305-0.559,0.525v2.25c0,0.094-0.034,0.174-0.101,0.24c-0.067,0.064-0.149,0.096-0.244,0.096   c-0.095,0-0.175-0.031-0.24-0.096c-0.065-0.066-0.098-0.146-0.098-0.24v-3.219c0-0.094,0.033-0.176,0.098-0.244   c0.065-0.066,0.145-0.1,0.24-0.1c0.095,0,0.176,0.033,0.244,0.1c0.067,0.068,0.101,0.15,0.101,0.244v0.309   c0.19-0.211,0.395-0.379,0.615-0.504c0.22-0.125,0.48-0.188,0.78-0.188C97.801,89.006,98.04,89.072,98.242,89.201z"
   id="path238955" />
	<path
   fill="#232323"
   d="M102.326,92.393c0.055,0.053,0.083,0.117,0.083,0.191c0,0.115-0.058,0.203-0.172,0.264   c-0.195,0.09-0.403,0.135-0.623,0.135c-0.73,0-1.095-0.33-1.095-0.99v-2.326h-0.532c-0.04,0-0.074-0.014-0.102-0.041   c-0.027-0.027-0.041-0.061-0.041-0.102c0-0.049,0.022-0.092,0.067-0.127l1.02-0.998c0.045-0.045,0.087-0.066,0.127-0.066   s0.074,0.016,0.102,0.045c0.027,0.029,0.041,0.064,0.041,0.105v0.6h0.848c0.085,0,0.155,0.027,0.21,0.082   c0.055,0.055,0.083,0.125,0.083,0.211c0,0.08-0.028,0.148-0.083,0.205c-0.055,0.059-0.125,0.086-0.21,0.086h-0.848v2.266   c0,0.195,0.046,0.318,0.139,0.371c0.093,0.053,0.209,0.078,0.349,0.078c0.1,0,0.2-0.014,0.3-0.045   c0.02-0.004,0.041-0.01,0.063-0.014c0.023-0.006,0.051-0.008,0.086-0.008C102.208,92.314,102.271,92.34,102.326,92.393z"
   id="path238957" />
	<path
   fill="#232323"
   d="M104.216,87.92c0,0.104-0.038,0.193-0.113,0.27c-0.075,0.074-0.165,0.111-0.27,0.111h-0.045   c-0.105,0-0.195-0.037-0.27-0.111c-0.075-0.076-0.112-0.166-0.112-0.27v-0.031c0-0.104,0.038-0.195,0.112-0.27   c0.075-0.074,0.165-0.113,0.27-0.113h0.045c0.105,0,0.195,0.039,0.27,0.113c0.075,0.074,0.113,0.166,0.113,0.27V87.92z    M104.051,89.143c0.065,0.064,0.098,0.146,0.098,0.246v3.219c0,0.094-0.034,0.174-0.102,0.24c-0.067,0.064-0.149,0.096-0.244,0.096   c-0.095,0-0.175-0.031-0.24-0.096c-0.065-0.066-0.098-0.146-0.098-0.24v-3.219c0-0.094,0.032-0.176,0.098-0.244   c0.065-0.066,0.145-0.1,0.24-0.1C103.903,89.045,103.986,89.076,104.051,89.143z"
   id="path238959" />
	<path
   fill="#232323"
   d="M108.341,89.254c0.29,0.166,0.515,0.398,0.675,0.701s0.24,0.648,0.24,1.039s-0.08,0.736-0.24,1.039   s-0.385,0.535-0.675,0.701c-0.29,0.164-0.625,0.248-1.005,0.248c-0.385,0-0.722-0.084-1.012-0.248   c-0.29-0.166-0.514-0.398-0.671-0.701c-0.157-0.303-0.236-0.648-0.236-1.039s0.079-0.736,0.236-1.039   c0.158-0.303,0.381-0.535,0.671-0.701c0.29-0.164,0.627-0.248,1.012-0.248C107.716,89.006,108.051,89.09,108.341,89.254z    M107.924,92.217c0.188-0.096,0.342-0.244,0.465-0.449c0.122-0.205,0.184-0.467,0.184-0.781c0-0.309-0.062-0.566-0.184-0.771   c-0.123-0.205-0.278-0.354-0.465-0.447c-0.188-0.092-0.384-0.139-0.589-0.139c-0.21,0-0.409,0.047-0.596,0.139   c-0.188,0.094-0.341,0.242-0.461,0.447c-0.12,0.205-0.18,0.463-0.18,0.771c0,0.314,0.06,0.576,0.18,0.781   c0.12,0.205,0.273,0.354,0.461,0.449s0.386,0.143,0.596,0.143C107.541,92.359,107.737,92.313,107.924,92.217z"
   id="path238961" />
	<path
   fill="#232323"
   d="M113.287,89.201c0.203,0.131,0.357,0.309,0.465,0.533s0.162,0.473,0.162,0.742v2.131   c0,0.094-0.034,0.174-0.102,0.24c-0.067,0.064-0.149,0.096-0.244,0.096c-0.095,0-0.175-0.031-0.24-0.096   c-0.065-0.066-0.098-0.146-0.098-0.24v-2.057c0-0.609-0.275-0.914-0.825-0.914c-0.25,0-0.474,0.064-0.671,0.195   c-0.198,0.129-0.384,0.305-0.559,0.525v2.25c0,0.094-0.034,0.174-0.101,0.24c-0.067,0.064-0.149,0.096-0.244,0.096   c-0.095,0-0.175-0.031-0.24-0.096c-0.065-0.066-0.098-0.146-0.098-0.24v-3.219c0-0.094,0.033-0.176,0.098-0.244   c0.065-0.066,0.145-0.1,0.24-0.1c0.095,0,0.176,0.033,0.244,0.1c0.067,0.068,0.101,0.15,0.101,0.244v0.309   c0.19-0.211,0.395-0.379,0.615-0.504c0.22-0.125,0.48-0.188,0.78-0.188C112.846,89.006,113.084,89.072,113.287,89.201z"
   id="path238963" />
	<path
   fill="#232323"
   d="M118.361,87.92c0,0.104-0.038,0.193-0.113,0.27c-0.075,0.074-0.165,0.111-0.27,0.111h-0.045   c-0.105,0-0.195-0.037-0.27-0.111c-0.075-0.076-0.112-0.166-0.112-0.27v-0.031c0-0.104,0.038-0.195,0.112-0.27   c0.075-0.074,0.165-0.113,0.27-0.113h0.045c0.105,0,0.195,0.039,0.27,0.113c0.075,0.074,0.113,0.166,0.113,0.27V87.92z    M118.196,89.143c0.065,0.064,0.098,0.146,0.098,0.246v3.219c0,0.094-0.034,0.174-0.102,0.24c-0.067,0.064-0.149,0.096-0.244,0.096   c-0.095,0-0.175-0.031-0.24-0.096c-0.065-0.066-0.098-0.146-0.098-0.24v-3.219c0-0.094,0.032-0.176,0.098-0.244   c0.065-0.066,0.145-0.1,0.24-0.1C118.048,89.045,118.131,89.076,118.196,89.143z"
   id="path238965" />
	<path
   fill="#232323"
   d="M122.587,89.201c0.203,0.131,0.357,0.309,0.465,0.533s0.162,0.473,0.162,0.742v2.131   c0,0.094-0.034,0.174-0.102,0.24c-0.067,0.064-0.149,0.096-0.244,0.096c-0.095,0-0.175-0.031-0.24-0.096   c-0.065-0.066-0.098-0.146-0.098-0.24v-2.057c0-0.609-0.275-0.914-0.825-0.914c-0.25,0-0.474,0.064-0.671,0.195   c-0.198,0.129-0.384,0.305-0.559,0.525v2.25c0,0.094-0.034,0.174-0.101,0.24c-0.067,0.064-0.149,0.096-0.244,0.096   c-0.095,0-0.175-0.031-0.24-0.096c-0.065-0.066-0.098-0.146-0.098-0.24v-3.219c0-0.094,0.033-0.176,0.098-0.244   c0.065-0.066,0.145-0.1,0.24-0.1c0.095,0,0.176,0.033,0.244,0.1c0.067,0.068,0.101,0.15,0.101,0.244v0.309   c0.19-0.211,0.395-0.379,0.615-0.504c0.22-0.125,0.48-0.188,0.78-0.188C122.146,89.006,122.384,89.072,122.587,89.201z"
   id="path238967" />
	<path
   fill="#232323"
   d="M127.597,87.736c0.068,0.066,0.102,0.148,0.102,0.242v4.629c0,0.094-0.034,0.174-0.102,0.24   c-0.067,0.064-0.148,0.096-0.244,0.096s-0.175-0.031-0.24-0.096c-0.065-0.066-0.098-0.146-0.098-0.24v-4.629   c0-0.094,0.032-0.176,0.098-0.242c0.065-0.068,0.145-0.102,0.24-0.102S127.529,87.668,127.597,87.736z"
   id="path238969" />
	<path
   fill="#232323"
   d="M129.88,90.484c0.14,0.07,0.357,0.137,0.652,0.203c0.295,0.074,0.535,0.148,0.72,0.221   s0.344,0.186,0.476,0.342c0.133,0.154,0.199,0.361,0.199,0.621c0,0.32-0.126,0.586-0.378,0.795   c-0.252,0.211-0.609,0.316-1.069,0.316c-0.5,0-0.955-0.113-1.365-0.338c-0.085-0.061-0.127-0.143-0.127-0.248   c0-0.08,0.027-0.15,0.083-0.209c0.055-0.061,0.125-0.09,0.21-0.09c0.045,0,0.09,0.01,0.135,0.029c0.16,0.07,0.32,0.125,0.48,0.164   c0.16,0.041,0.34,0.061,0.54,0.061c0.555,0,0.833-0.178,0.833-0.533c0-0.113-0.064-0.201-0.191-0.262s-0.336-0.127-0.626-0.203   c-0.295-0.068-0.539-0.143-0.731-0.217s-0.357-0.189-0.495-0.342s-0.206-0.354-0.206-0.604c0-0.35,0.126-0.635,0.378-0.855   c0.252-0.219,0.614-0.33,1.084-0.33c0.385,0,0.748,0.063,1.087,0.188c0.07,0.021,0.124,0.059,0.161,0.113   c0.038,0.055,0.057,0.113,0.057,0.172c0,0.08-0.029,0.15-0.086,0.211s-0.129,0.09-0.214,0.09c-0.025,0-0.058-0.006-0.098-0.016   c-0.29-0.09-0.575-0.135-0.855-0.135c-0.27,0-0.481,0.049-0.633,0.146c-0.153,0.098-0.229,0.225-0.229,0.379   C129.67,90.305,129.74,90.414,129.88,90.484z"
   id="path238971" />
	<path
   fill="#232323"
   d="M135.239,89.104c0.063,0.066,0.094,0.146,0.094,0.24c0,0.096-0.032,0.174-0.097,0.232   c-0.065,0.061-0.147,0.09-0.248,0.09h-0.038c-0.24,0-0.46,0.059-0.66,0.178c-0.2,0.117-0.367,0.277-0.502,0.482v2.281   c0,0.094-0.034,0.174-0.101,0.24c-0.067,0.064-0.149,0.096-0.244,0.096c-0.095,0-0.175-0.031-0.24-0.096   c-0.065-0.066-0.098-0.146-0.098-0.24v-3.219c0-0.094,0.033-0.176,0.098-0.244c0.065-0.066,0.145-0.1,0.24-0.1   c0.095,0,0.176,0.033,0.244,0.1c0.067,0.068,0.101,0.15,0.101,0.244v0.322c0.35-0.469,0.743-0.705,1.178-0.705h0.038   C135.098,89.006,135.177,89.039,135.239,89.104z"
   id="path238973" />
	<path
   fill="#232323"
   d="M138.606,89.217c0.237,0.141,0.413,0.32,0.525,0.543c0.113,0.223,0.169,0.465,0.169,0.725v2.123   c0,0.094-0.034,0.174-0.102,0.24c-0.067,0.064-0.148,0.096-0.244,0.096c-0.095,0-0.175-0.031-0.24-0.096   c-0.065-0.066-0.098-0.146-0.098-0.24v-0.195c-0.37,0.379-0.84,0.57-1.41,0.57c-0.22,0-0.423-0.045-0.611-0.135   c-0.188-0.092-0.336-0.223-0.446-0.395c-0.11-0.172-0.165-0.371-0.165-0.596c0-0.371,0.146-0.666,0.438-0.885   c0.292-0.221,0.721-0.33,1.286-0.33h0.908v-0.061c0-0.33-0.082-0.568-0.244-0.713c-0.163-0.145-0.417-0.217-0.761-0.217   c-0.19,0-0.359,0.014-0.506,0.045c-0.147,0.029-0.311,0.074-0.491,0.135c-0.04,0.01-0.073,0.016-0.098,0.016   c-0.075,0-0.14-0.029-0.195-0.084c-0.055-0.055-0.083-0.121-0.083-0.201c0-0.137,0.065-0.23,0.195-0.285   c0.425-0.18,0.857-0.271,1.298-0.271C138.078,89.006,138.369,89.076,138.606,89.217z M138.1,92.221   c0.205-0.107,0.377-0.242,0.518-0.402v-0.629H137.8c-0.755,0-1.133,0.197-1.133,0.592c0,0.18,0.062,0.326,0.184,0.436   s0.326,0.164,0.611,0.164C137.683,92.381,137.895,92.328,138.1,92.221z"
   id="path238975" />
	<path
   fill="#232323"
   d="M143.875,92.164c0.06,0.055,0.09,0.125,0.09,0.211c0,0.109-0.064,0.201-0.195,0.277   c-0.194,0.109-0.387,0.191-0.577,0.246c-0.19,0.057-0.435,0.084-0.735,0.084c-0.61,0-1.086-0.174-1.428-0.521   c-0.343-0.348-0.514-0.836-0.514-1.467c0-0.355,0.065-0.682,0.195-0.982s0.33-0.543,0.6-0.727c0.27-0.186,0.603-0.279,0.998-0.279   c0.37,0,0.69,0.088,0.96,0.26s0.475,0.402,0.615,0.689c0.14,0.287,0.21,0.602,0.21,0.941c0,0.096-0.031,0.176-0.094,0.24   s-0.146,0.098-0.252,0.098h-2.542c0.04,0.35,0.17,0.623,0.39,0.816c0.22,0.195,0.528,0.293,0.923,0.293   c0.21,0,0.394-0.02,0.551-0.059c0.158-0.041,0.312-0.098,0.462-0.174c0.04-0.02,0.085-0.029,0.135-0.029   C143.746,92.082,143.816,92.109,143.875,92.164z M141.806,89.701c-0.165,0.076-0.303,0.197-0.413,0.363   c-0.11,0.164-0.173,0.369-0.188,0.615h2.212c-0.015-0.246-0.078-0.451-0.19-0.615c-0.113-0.166-0.252-0.287-0.416-0.363   c-0.166-0.078-0.333-0.117-0.503-0.117C142.138,89.584,141.97,89.623,141.806,89.701z"
   id="path238977" />
	<path
   fill="#232323"
   d="M145.945,87.492c0.065,0.064,0.098,0.146,0.098,0.246v4.869c0,0.094-0.034,0.174-0.102,0.24   c-0.067,0.064-0.148,0.096-0.243,0.096c-0.096,0-0.176-0.031-0.24-0.096c-0.065-0.066-0.098-0.146-0.098-0.24v-4.869   c0-0.094,0.032-0.176,0.098-0.242c0.064-0.068,0.145-0.102,0.24-0.102C145.797,87.395,145.88,87.428,145.945,87.492z"
   id="path238979" />
</g>

<g
   id="g239057">
	<g
   id="g239017">
		<g
   id="g239003">
			<g
   id="g238997">
				<path
   fill="#101010"
   d="M138.92,31.609c0,0,0.003-0.005,0.01-0.016c0.201-0.042,0.285-0.177,0.332-0.236      c0.747-1.196,0.948-2.405,0.887-3.482c0.062-1.076-0.14-2.287-0.887-3.481c-0.047-0.063-0.131-0.198-0.332-0.24      c-0.007-0.007-0.01-0.012-0.01-0.012l-0.014,0.008c-0.224-0.034-0.592,0.042-1.226,0.457c-0.772,0.507-3.212,2.532-3.212,2.532      s-0.856,0.789,0,1.475c0,0,2.523,2.023,3.3,2.531c0.631,0.411,0.914,0.494,1.138,0.457L138.92,31.609z"
   id="path238995" />
			</g>
			<g
   id="g239001">
				<path
   fill="#101010"
   d="M139.321,31.266c0,0,1.89-2.819,0.132-6.534"
   id="path238999" />
			</g>
		</g>
		<g
   id="g239013">
			<g
   id="g239007">
				<path
   fill="#101010"
   d="M129.222,31.609c0,0-0.003-0.005-0.007-0.016c-0.202-0.042-0.288-0.177-0.334-0.236      c-0.747-1.196-0.947-2.405-0.887-3.482c-0.061-1.076,0.14-2.287,0.887-3.481c0.046-0.063,0.132-0.198,0.334-0.24      c0.004-0.007,0.007-0.012,0.007-0.012l0.016,0.008c0.225-0.034,0.591,0.042,1.225,0.457c0.772,0.507,3.211,2.532,3.211,2.532      s0.857,0.789,0,1.475c0,0-2.522,2.023-3.298,2.531c-0.631,0.411-0.913,0.494-1.138,0.457L129.222,31.609z"
   id="path239005" />
			</g>
			<g
   id="g239011">
				<path
   fill="#101010"
   d="M128.821,31.266c0,0-1.89-2.819-0.132-6.534"
   id="path239009" />
			</g>
		</g>
		<circle
   fill="#101010"
   cx="134.198"
   cy="27.763"
   r="1.672"
   id="circle239015" />
	</g>
	<g
   id="g239055">
		<path
   fill="#101010"
   d="M129.991,10.174c0.04,0.027,0.083,0.057,0.119,0.079l0.242,0.314c-0.595-1.891-0.622-9.854-2.5-6.904    c-0.697,1.093-0.734,2.181-0.445,3.154c-0.867-0.528-1.93-0.771-3.165-0.378c-3.331,1.061,4.36,3.127,6.035,4.186l-0.242-0.313    C130.024,10.271,130.006,10.222,129.991,10.174z"
   id="path239019" />
		<g
   id="g239053">
			<g
   id="g239049">
				<g
   id="g239025">
					<path
   fill="#101010"
   d="M142.75,10.625c-1.758-4.506-5.508-5.192-11.592-4.743c-0.001,0,0.134,0.285,0.134,0.285       c0,0.006-0.134-0.286-0.134-0.285c0-0.001,0.546,0.448,0.546,0.442l-0.546-0.442c0,0.068-5.93,1.499-7.688,6.011       c-0.25,0.252-1.066,3.107-0.834,10.107h-0.016c0,0,0.08,0.078,0.323,0.922c0.217,1.303,2.07,6.024,11.229,5.864       c10.229,0.183,11.057-6.569,10.961-6.859C146.393,17.764,143.041,10.92,142.75,10.625z"
   id="path239021" />
					<path
   fill="#101010"
   d="M133.758,28.863c-10.029,0-11.287-6.192-11.332-6.463c-0.24-0.817-0.239-1.225-0.239-1.222       c0.077,0.572-0.001,0-0.001,0c-0.066-5.427,1.762-8.888,2.298-9.687c1.98-5,7.162-5.943,9.302-5.999       c5.014,0.129,8.362,1.858,9.712,5.27c0.626,0.94,3.435,6.902,2.246,11.019c0.006,0.558-0.14,1.816-1.044,3.07       c-1.327,1.84-5.699,3.981-9.699,3.981v0.005l-0.621,0.007L133.758,28.863z M123.086,20.739       c0.041,0.295,0.128,0.804,0.278,1.327c0.05,0.288,10.803,4.09,10.803,4.09s7.097,0.85,8.949-1.063       c1.472-1.52,1.763-3.143,1.755-3.379l-0.042-0.132l0.055-0.049c1.203-3.973-1.845-10.078-2.104-10.413l-0.079-0.128       c-1.217-3.129-4.216-4.776-8.915-4.896c-1.949,0.049-6.731,0.66-8.509,5.222l-0.098,0.148       c-0.313,0.424-2.323,4.999-2.104,9.044L123.086,20.739z"
   id="path239023" />
				</g>
				<g
   id="g239029">
					<path
   fill="#FFFFFF"
   d="M145.169,21.217c0,0-0.146-2.436-0.484-3.18c-0.341-0.754-0.388-2.709-0.437-3.438       c-0.047-0.722-0.627-2.801-2.422-2.605c-1.691,0.337-3.317,2.07-3.871,5.514c-0.192,1.201,0.388,2.98,0.388,2.98       S139.505,24,134.181,24h-0.037c-5.326,0-4.163-3.507-4.163-3.507s0.579-1.837,0.386-3.04c-0.551-3.443-2.177-5.15-3.872-5.489       c-1.789-0.193-2.372,1.904-2.421,2.631c-0.048,0.728-0.095,2.689-0.434,3.441c-0.341,0.75-0.485,2.742-0.485,2.742       S122.476,27,134.144,27c0.007,0,0.012,0,0.018,0s-0.018,0,0,0C145.827,27,145.169,21.217,145.169,21.217z"
   id="path239027" />
				</g>
				<g
   id="g239033">
					<path
   fill="#101010"
   d="M127.273,15.059c-0.141-0.048-0.292-0.071-0.45-0.071c-0.815,0-1.475,0.659-1.475,1.478       c0,0.813,0.659,1.474,1.475,1.474c0.814,0,1.477-0.66,1.477-1.474c0-0.25-0.06-0.479-0.168-0.68l-1.5,0.598L127.273,15.059z"
   id="path239031" />
				</g>
				<g
   id="g239037">
					<path
   fill="#101010"
   d="M141.875,15.059c-0.144-0.048-0.292-0.071-0.449-0.071c-0.815,0-1.478,0.659-1.478,1.478       c0,0.813,0.662,1.474,1.478,1.474s1.474-0.66,1.474-1.474c0-0.25-0.059-0.479-0.166-0.68l-1.501,0.598L141.875,15.059z"
   id="path239035" />
				</g>
				<g
   id="g239047">
					<g
   id="g239041">
						<path
   fill="#EDC624"
   d="M136.605,18.303c0,0-0.003-0.002-0.009-0.005c-0.027-0.134-0.116-0.188-0.156-0.22        c-0.785-0.489-1.577-0.62-2.284-0.581c-0.709-0.039-1.501,0.092-2.286,0.581c-0.041,0.032-0.13,0.086-0.157,0.22        c-0.005,0.003-0.009,0.005-0.009,0.005l0.006,0.011c-0.023,0.146,0.028,0.388,0.3,0.804c0.333,0.507,1.661,2.107,1.661,2.107        s0.518,0.562,0.969,0c0,0,1.329-1.656,1.661-2.165c0.271-0.413,0.324-0.601,0.3-0.746L136.605,18.303z"
   id="path239039" />
					</g>
					<g
   id="g239045">
						<path
   fill="#EDC624"
   d="M136.381,19.147c0,0-1.85-1.241-4.288-0.088"
   id="path239043" />
					</g>
				</g>
			</g>
			<path
   fill="#101010"
   d="M145.995,18.569c0.174,1.593,0.156,4.814-1.292,6.282"
   id="path239051" />
		</g>
	</g>
</g>
<path
   fill="#FFFFFF"
   stroke="#101010"
   stroke-width="0.25"
   stroke-miterlimit="10"
   d="M17.752,8.322l5.875,18.644  c0.12,0.398,0.054,0.768-0.195,1.108c-0.25,0.339-0.584,0.509-1.004,0.509h-2.937c-0.5,0-0.944-0.153-1.334-0.464  c-0.389-0.31-0.634-0.704-0.734-1.185l-0.509-2.307c-0.04-0.161-0.14-0.24-0.3-0.24h-5.125c-0.2,0-0.31,0.079-0.331,0.24  l-0.508,2.307c-0.102,0.48-0.345,0.875-0.735,1.185c-0.389,0.311-0.834,0.464-1.333,0.464H5.763c-0.42,0-0.755-0.17-1.004-0.509  c-0.25-0.341-0.315-0.71-0.195-1.108l5.874-18.644c0.141-0.479,0.415-0.87,0.825-1.169c0.409-0.301,0.874-0.45,1.394-0.45h2.876  c0.5,0,0.955,0.149,1.364,0.45C17.307,7.452,17.592,7.843,17.752,8.322z M12.478,19.891h3.117c0.06,0,0.115-0.024,0.164-0.074  c0.05-0.049,0.065-0.105,0.045-0.166l-1.738-7.821c0-0.019-0.01-0.03-0.03-0.03c-0.02,0-0.03,0.012-0.03,0.03l-1.738,7.821  c-0.02,0.061-0.004,0.117,0.045,0.166C12.362,19.866,12.417,19.891,12.478,19.891z"
   id="path239059" />
<path
   fill="#FFFFFF"
   stroke="#101010"
   stroke-width="0.25"
   stroke-miterlimit="10"
   d="M39.602,12.998  c0.459,0,0.859,0.169,1.199,0.509c0.339,0.342,0.51,0.74,0.51,1.199v12.169c0,0.46-0.17,0.858-0.51,1.199  c-0.34,0.339-0.74,0.509-1.199,0.509h-2.038c-0.481,0-0.891-0.165-1.23-0.494s-0.52-0.735-0.539-1.214v-0.239  c0-0.021-0.011-0.031-0.03-0.031c-0.041,0-0.06,0.01-0.06,0.031c-1.239,1.498-2.768,2.247-4.586,2.247  c-1.758,0-3.023-0.489-3.791-1.468c-0.771-0.979-1.155-2.688-1.155-5.126v-7.583c0-0.459,0.17-0.857,0.51-1.199  c0.34-0.34,0.739-0.509,1.199-0.509h2.128c0.459,0,0.858,0.169,1.199,0.509c0.34,0.342,0.509,0.74,0.509,1.199v7.282  c0,0.92,0.125,1.55,0.375,1.889c0.249,0.341,0.674,0.511,1.274,0.511c0.559,0,1.073-0.22,1.543-0.659  c0.469-0.44,0.705-0.919,0.705-1.439v-7.583c0-0.459,0.169-0.857,0.51-1.199c0.339-0.34,0.738-0.509,1.198-0.509H39.602z"
   id="path239061" />
<path
   fill="#FFFFFF"
   stroke="#101010"
   stroke-width="0.25"
   stroke-miterlimit="10"
   d="M59.174,12.998  c0.459,0,0.859,0.169,1.199,0.509c0.339,0.342,0.511,0.74,0.511,1.199v12.379c0,2.678-0.816,4.744-2.445,6.204  c-1.627,1.458-3.911,2.188-6.847,2.188c-1.14,0-2.279-0.091-3.418-0.269c-0.479-0.082-0.879-0.316-1.199-0.706  c-0.32-0.391-0.479-0.835-0.479-1.334V31.94c0-0.42,0.165-0.745,0.494-0.975s0.705-0.294,1.124-0.194  c0.899,0.239,1.958,0.359,3.178,0.359c1.398,0,2.421-0.311,3.072-0.93c0.648-0.619,0.975-1.657,0.975-3.116v-0.75  c0-0.02-0.012-0.03-0.031-0.03c-0.04,0-0.061,0.011-0.061,0.03c-1.08,1.199-2.499,1.799-4.255,1.799  c-1.74,0-3.173-0.684-4.302-2.054c-1.129-1.367-1.693-3.232-1.693-5.59c0-2.477,0.543-4.395,1.633-5.753  c1.089-1.36,2.542-2.039,4.362-2.039c1.738,0,3.215,0.749,4.436,2.247c0.018,0.021,0.039,0.031,0.061,0.031  c0.019,0,0.028-0.01,0.028-0.031v-0.239c0.021-0.479,0.202-0.885,0.542-1.214c0.339-0.329,0.749-0.494,1.229-0.494H59.174z   M55.339,21.84v-2.549c0-0.697-0.233-1.272-0.691-1.722c-0.459-0.45-1.028-0.675-1.708-0.675c-1.6,0-2.397,1.198-2.397,3.596  c0,1.139,0.213,1.999,0.644,2.578c0.428,0.58,1.014,0.87,1.753,0.87c0.658,0,1.223-0.21,1.693-0.631  C55.102,22.889,55.339,22.398,55.339,21.84z"
   id="path239063" />
<path
   fill="#FFFFFF"
   stroke="#101010"
   stroke-width="0.25"
   stroke-miterlimit="10"
   d="M78.746,12.998  c0.459,0,0.859,0.169,1.199,0.509c0.339,0.342,0.509,0.74,0.509,1.199v12.169c0,0.46-0.17,0.858-0.509,1.199  c-0.34,0.339-0.74,0.509-1.199,0.509h-2.038c-0.48,0-0.89-0.165-1.229-0.494c-0.339-0.329-0.52-0.735-0.54-1.214v-0.239  c0-0.021-0.01-0.031-0.03-0.031c-0.041,0-0.059,0.01-0.059,0.031c-1.24,1.498-2.769,2.247-4.586,2.247  c-1.758,0-3.023-0.489-3.792-1.468c-0.77-0.979-1.153-2.688-1.153-5.126v-7.583c0-0.459,0.17-0.857,0.509-1.199  c0.34-0.34,0.739-0.509,1.199-0.509h2.128c0.459,0,0.858,0.169,1.199,0.509c0.34,0.342,0.509,0.74,0.509,1.199v7.282  c0,0.92,0.125,1.55,0.375,1.889c0.249,0.341,0.674,0.511,1.274,0.511c0.558,0,1.073-0.22,1.542-0.659  c0.47-0.44,0.706-0.919,0.706-1.439v-7.583c0-0.459,0.169-0.857,0.509-1.199c0.34-0.34,0.739-0.509,1.2-0.509H78.746z"
   id="path239065" />
<path
   fill="#FFFFFF"
   stroke="#101010"
   stroke-width="0.25"
   stroke-miterlimit="10"
   d="M91.783,18.542  c2.277,0.3,3.896,0.875,4.855,1.725c0.958,0.85,1.439,2.073,1.439,3.672c0,1.578-0.571,2.798-1.709,3.655  c-1.139,0.859-2.817,1.289-5.036,1.289c-1.639,0-3.287-0.161-4.945-0.48c-0.48-0.099-0.875-0.349-1.184-0.75  c-0.31-0.397-0.465-0.857-0.465-1.376v-0.781c0-0.418,0.17-0.748,0.51-0.989c0.339-0.238,0.709-0.31,1.108-0.209  c1.5,0.359,2.908,0.54,4.227,0.54c1.099,0,1.648-0.319,1.648-0.96c0-0.298-0.09-0.52-0.27-0.658c-0.179-0.141-0.539-0.25-1.079-0.33  c-2.219-0.36-3.821-0.98-4.811-1.858c-0.989-0.879-1.483-2.058-1.483-3.537c0-1.519,0.584-2.697,1.753-3.537  c1.169-0.839,2.932-1.258,5.29-1.258c1.559,0,2.998,0.1,4.316,0.3c0.5,0.08,0.904,0.311,1.214,0.689  c0.309,0.38,0.465,0.82,0.465,1.318v0.63c0,0.419-0.176,0.765-0.525,1.034c-0.349,0.269-0.734,0.364-1.154,0.283  c-1.219-0.239-2.468-0.359-3.747-0.359c-0.659,0-1.119,0.071-1.378,0.21c-0.259,0.141-0.39,0.37-0.39,0.689  C90.434,18.093,90.884,18.443,91.783,18.542z"
   id="path239067" />
<path
   fill="#FFFFFF"
   stroke="#101010"
   stroke-width="0.25"
   stroke-miterlimit="10"
   d="M112.645,13.597  c0.459,0,0.858,0.171,1.199,0.51c0.339,0.341,0.51,0.739,0.51,1.198v0.48c0,0.46-0.17,0.858-0.51,1.199  c-0.341,0.339-0.74,0.509-1.199,0.509h-2.668c-0.179,0-0.269,0.091-0.269,0.269v4.227c0,1.2,0.099,1.95,0.299,2.249  c0.199,0.3,0.648,0.449,1.349,0.449c0.28,0,0.62-0.03,1.019-0.09c0.42-0.06,0.804,0.045,1.154,0.314  c0.349,0.27,0.524,0.615,0.524,1.034v0.78c0,0.499-0.156,0.943-0.464,1.333c-0.311,0.39-0.706,0.614-1.184,0.674  c-0.7,0.101-1.549,0.15-2.548,0.15c-2.139,0-3.647-0.459-4.526-1.38c-0.879-0.916-1.318-2.557-1.318-4.913v-4.828  c0-0.178-0.09-0.269-0.27-0.269h-1.168c-0.46,0-0.859-0.17-1.2-0.509c-0.339-0.341-0.508-0.739-0.508-1.199v-0.48  c0-0.459,0.169-0.857,0.508-1.198c0.34-0.339,0.739-0.51,1.2-0.51h1.168c0.18,0,0.27-0.09,0.27-0.27V9.609  c0-0.458,0.17-0.857,0.51-1.198c0.339-0.339,0.739-0.51,1.199-0.51h2.278c0.459,0,0.858,0.171,1.199,0.51  c0.339,0.341,0.51,0.74,0.51,1.198v3.718c0,0.18,0.09,0.27,0.269,0.27H112.645z"
   id="path239069" />
<path
   fill="#FFFFFF"
   stroke="#101010"
   stroke-width="0.25"
   stroke-miterlimit="10"
   d="M12.618,36.135  c7.661,0,11.493,2.763,11.493,8.285c0,2.997-0.862,5.268-2.586,6.808c-1.724,1.546-4.242,2.317-7.554,2.317  c-0.497,0-1.128-0.022-1.894-0.065c-0.202,0-0.304,0.087-0.304,0.268v5.477c0,0.52-0.192,0.971-0.575,1.352  c-0.384,0.386-0.835,0.574-1.352,0.574H7.108c-0.519,0-0.969-0.188-1.353-0.574c-0.384-0.381-0.574-0.832-0.574-1.352V38.57  c0-0.54,0.179-1.024,0.541-1.454c0.36-0.428,0.813-0.663,1.352-0.708C8.99,36.227,10.837,36.135,12.618,36.135z M13.294,48.643  c1.465,0,2.591-0.338,3.38-1.013c0.789-0.677,1.184-1.635,1.184-2.872c0-2.367-1.521-3.549-4.563-3.549  c-0.428,0-0.844,0.031-1.25,0.102c-0.181,0.042-0.271,0.166-0.271,0.369v6.558c0,0.181,0.09,0.295,0.271,0.34  C12.584,48.622,13.001,48.643,13.294,48.643z"
   id="path239071" />
<path
   fill="#FFFFFF"
   stroke="#101010"
   stroke-width="0.25"
   stroke-miterlimit="10"
   d="M35.029,43.236c5.724,0,8.597,3.02,8.62,9.058  c0,0.54-0.204,0.997-0.609,1.371c-0.405,0.37-0.89,0.558-1.453,0.558h-8.856c-0.202,0-0.282,0.102-0.236,0.303  c0.203,0.946,0.646,1.611,1.334,1.995c0.687,0.382,1.763,0.573,3.229,0.573c0.923,0,2.049-0.134,3.38-0.404  c0.473-0.112,0.9-0.019,1.285,0.287c0.383,0.305,0.575,0.704,0.575,1.2v0.54c0,0.563-0.175,1.077-0.524,1.539  c-0.351,0.463-0.794,0.738-1.335,0.827c-1.375,0.271-2.839,0.404-4.394,0.404c-3.201,0-5.663-0.781-7.386-2.346  c-1.724-1.568-2.585-3.826-2.585-6.778c0-2.931,0.766-5.184,2.298-6.763C29.902,44.025,32.122,43.236,35.029,43.236z M37.43,50.671  c0.203,0,0.304-0.102,0.304-0.302c-0.023-1.039-0.243-1.781-0.659-2.233c-0.417-0.448-1.043-0.677-1.876-0.677  c-0.879,0-1.538,0.22-1.979,0.661c-0.438,0.44-0.715,1.199-0.828,2.281c0,0.181,0.09,0.27,0.271,0.27H37.43z"
   id="path239073" />
<path
   fill="#FFFFFF"
   stroke="#101010"
   stroke-width="0.25"
   stroke-miterlimit="10"
   d="M59.3,43.236c2.05,0,3.521,0.584,4.411,1.756  c0.891,1.172,1.336,3.179,1.336,6.019v8.213c0,0.52-0.193,0.971-0.575,1.352c-0.383,0.386-0.834,0.574-1.353,0.574h-2.4  c-0.518,0-0.969-0.188-1.352-0.574c-0.383-0.381-0.573-0.832-0.573-1.352v-8.213c0-1.036-0.148-1.746-0.44-2.13  c-0.294-0.383-0.822-0.576-1.588-0.576c-0.631,0-1.212,0.25-1.743,0.743c-0.528,0.497-0.793,1.038-0.793,1.623v8.553  c0,0.52-0.192,0.971-0.576,1.352c-0.383,0.386-0.833,0.574-1.352,0.574h-2.569c-0.519,0-0.969-0.188-1.353-0.574  c-0.383-0.381-0.574-0.832-0.574-1.352V45.5c0-0.518,0.191-0.967,0.574-1.352c0.383-0.384,0.834-0.575,1.353-0.575h2.298  c0.542,0,1.002,0.187,1.387,0.557c0.382,0.372,0.585,0.831,0.608,1.37v0.27c0,0.024,0.011,0.035,0.035,0.035  c0.045,0,0.065-0.011,0.065-0.035C55.524,44.08,57.249,43.236,59.3,43.236z"
   id="path239075" />
<path
   fill="#FFFFFF"
   stroke="#101010"
   stroke-width="0.25"
   stroke-miterlimit="10"
   d="M85.024,43.573  c0.517,0,0.968,0.191,1.352,0.575c0.383,0.385,0.575,0.834,0.575,1.352v13.96c0,3.021-0.92,5.352-2.757,6.997  c-1.836,1.646-4.41,2.469-7.722,2.469c-1.285,0-2.57-0.102-3.854-0.303c-0.541-0.092-0.992-0.356-1.353-0.797  c-0.36-0.438-0.54-0.94-0.54-1.501v-1.39c0-0.471,0.186-0.839,0.557-1.098c0.372-0.26,0.794-0.332,1.267-0.22  c1.015,0.271,2.209,0.406,3.583,0.406c1.577,0,2.732-0.351,3.465-1.051c0.731-0.696,1.099-1.866,1.099-3.514v-0.847  c0-0.021-0.013-0.03-0.034-0.03c-0.045,0-0.068,0.009-0.068,0.03c-1.217,1.354-2.818,2.029-4.8,2.029  c-1.96,0-3.578-0.771-4.852-2.314c-1.272-1.544-1.909-3.645-1.909-6.304c0-2.794,0.614-4.958,1.842-6.49  c1.228-1.532,2.867-2.298,4.918-2.298c1.96,0,3.627,0.844,5.003,2.533c0.022,0.024,0.045,0.035,0.068,0.035  c0.022,0,0.033-0.011,0.033-0.035V45.5c0.022-0.539,0.226-0.998,0.609-1.37c0.383-0.37,0.844-0.557,1.385-0.557H85.024z   M80.697,53.545v-2.874c0-0.787-0.26-1.435-0.778-1.942c-0.519-0.507-1.161-0.761-1.927-0.761c-1.803,0-2.704,1.352-2.704,4.057  c0,1.286,0.241,2.255,0.726,2.906c0.484,0.655,1.144,0.981,1.978,0.981c0.743,0,1.38-0.237,1.91-0.711  C80.431,54.729,80.697,54.177,80.697,53.545z"
   id="path239077" />
<path
   fill="#FFFFFF"
   stroke="#101010"
   stroke-width="0.25"
   stroke-miterlimit="10"
   d="M107.097,43.573  c0.518,0,0.968,0.191,1.353,0.575c0.383,0.385,0.574,0.834,0.574,1.352v13.724c0,0.52-0.191,0.971-0.574,1.352  c-0.384,0.386-0.835,0.574-1.353,0.574h-2.297c-0.543,0-1.005-0.185-1.388-0.557s-0.586-0.829-0.608-1.369v-0.271  c0-0.021-0.011-0.034-0.033-0.034c-0.046,0-0.067,0.013-0.067,0.034c-1.399,1.689-3.122,2.534-5.172,2.534  c-1.983,0-3.41-0.549-4.276-1.654c-0.869-1.104-1.301-3.031-1.301-5.779V45.5c0-0.518,0.191-0.967,0.575-1.352  c0.383-0.384,0.833-0.575,1.352-0.575h2.401c0.517,0,0.968,0.191,1.352,0.575c0.383,0.385,0.574,0.834,0.574,1.352v8.215  c0,1.036,0.14,1.747,0.423,2.129c0.281,0.383,0.761,0.575,1.437,0.575c0.629,0,1.21-0.249,1.74-0.744  c0.529-0.497,0.795-1.036,0.795-1.621V45.5c0-0.518,0.191-0.967,0.575-1.352c0.383-0.384,0.833-0.575,1.352-0.575H107.097z"
   id="path239079" />
<path
   fill="#FFFFFF"
   stroke="#101010"
   stroke-width="0.25"
   stroke-miterlimit="10"
   d="M119.705,35.799  c0.518,0,0.967,0.189,1.352,0.574c0.383,0.385,0.574,0.836,0.574,1.353v0.879c0,0.518-0.191,0.97-0.574,1.353  c-0.385,0.382-0.834,0.574-1.352,0.574h-2.907c-0.519,0-0.97-0.192-1.353-0.574c-0.382-0.383-0.574-0.835-0.574-1.353v-0.879  c0-0.517,0.191-0.968,0.574-1.353c0.383-0.385,0.834-0.574,1.353-0.574H119.705z M119.705,43.573c0.518,0,0.967,0.191,1.352,0.575  c0.383,0.385,0.574,0.834,0.574,1.352v13.724c0,0.52-0.191,0.971-0.574,1.352c-0.385,0.386-0.834,0.574-1.352,0.574h-2.907  c-0.519,0-0.97-0.188-1.353-0.574c-0.382-0.381-0.574-0.832-0.574-1.352V45.5c0-0.518,0.191-0.967,0.574-1.352  c0.383-0.384,0.834-0.575,1.353-0.575H119.705z"
   id="path239081" />
<path
   fill="#FFFFFF"
   stroke="#101010"
   stroke-width="0.25"
   stroke-miterlimit="10"
   d="M138.972,43.236  c2.051,0,3.52,0.584,4.412,1.756c0.89,1.172,1.334,3.179,1.334,6.019v8.213c0,0.52-0.191,0.971-0.574,1.352  c-0.384,0.386-0.834,0.574-1.352,0.574h-2.4c-0.519,0-0.969-0.188-1.353-0.574c-0.382-0.381-0.574-0.832-0.574-1.352v-8.213  c0-1.036-0.146-1.746-0.438-2.13c-0.294-0.383-0.824-0.576-1.589-0.576c-0.63,0-1.212,0.25-1.741,0.743  c-0.53,0.497-0.794,1.038-0.794,1.623v8.553c0,0.52-0.191,0.971-0.574,1.352c-0.385,0.386-0.834,0.574-1.352,0.574h-2.57  c-0.52,0-0.968-0.188-1.352-0.574c-0.383-0.381-0.574-0.832-0.574-1.352V45.5c0-0.518,0.19-0.967,0.574-1.352  c0.384-0.384,0.833-0.575,1.352-0.575h2.299c0.54,0,1.001,0.187,1.385,0.557c0.382,0.372,0.586,0.831,0.609,1.37v0.27  c0,0.024,0.012,0.035,0.035,0.035c0.043,0,0.066-0.011,0.066-0.035C135.196,44.08,136.922,43.236,138.972,43.236z"
   id="path239083" />
<path
   fill="#0C0C0C"
   stroke="#282828"
   stroke-width="0.25"
   stroke-miterlimit="10"
   d="M18.952,7.123l5.874,18.643  c0.121,0.399,0.056,0.771-0.194,1.109c-0.25,0.34-0.584,0.509-1.004,0.509H20.69c-0.5,0-0.944-0.153-1.334-0.464  c-0.39-0.31-0.635-0.705-0.734-1.184l-0.51-2.309c-0.04-0.159-0.139-0.239-0.299-0.239h-5.125c-0.199,0-0.309,0.08-0.329,0.239  l-0.51,2.309c-0.1,0.479-0.345,0.874-0.734,1.184c-0.389,0.311-0.834,0.464-1.333,0.464H6.962c-0.419,0-0.754-0.169-1.003-0.509  c-0.25-0.339-0.315-0.71-0.195-1.109l5.875-18.643c0.14-0.479,0.414-0.869,0.824-1.169s0.874-0.449,1.394-0.449h2.877  c0.499,0,0.954,0.149,1.364,0.449C18.506,6.254,18.791,6.644,18.952,7.123z M13.676,18.692h3.117c0.061,0,0.115-0.025,0.165-0.075  c0.049-0.05,0.065-0.104,0.045-0.166l-1.74-7.821c0-0.02-0.009-0.03-0.029-0.03s-0.03,0.011-0.03,0.03l-1.739,7.821  c-0.02,0.062-0.005,0.116,0.045,0.166S13.616,18.692,13.676,18.692z"
   id="path239085" />
<path
   fill="#0C0C0C"
   stroke="#282828"
   stroke-width="0.25"
   stroke-miterlimit="10"
   d="M40.801,11.799  c0.459,0,0.858,0.169,1.199,0.51c0.339,0.34,0.51,0.739,0.51,1.198v12.169c0,0.461-0.171,0.86-0.51,1.199  c-0.34,0.34-0.739,0.509-1.199,0.509h-2.038c-0.479,0-0.89-0.164-1.229-0.494s-0.52-0.735-0.539-1.214v-0.239  c0-0.02-0.01-0.031-0.029-0.031c-0.041,0-0.061,0.012-0.061,0.031c-1.239,1.498-2.768,2.247-4.585,2.247  c-1.759,0-3.023-0.488-3.792-1.469c-0.77-0.977-1.153-2.687-1.153-5.125v-7.583c0-0.459,0.169-0.858,0.509-1.198  c0.34-0.341,0.739-0.51,1.199-0.51h2.128c0.459,0,0.859,0.169,1.199,0.51c0.339,0.34,0.51,0.739,0.51,1.198v7.282  c0,0.92,0.124,1.551,0.374,1.89c0.25,0.34,0.674,0.51,1.274,0.51c0.559,0,1.074-0.22,1.543-0.66c0.47-0.438,0.704-0.918,0.704-1.438  v-7.583c0-0.459,0.17-0.858,0.51-1.198c0.34-0.341,0.739-0.51,1.199-0.51H40.801z"
   id="path239087" />
<path
   fill="#0C0C0C"
   stroke="#282828"
   stroke-width="0.25"
   stroke-miterlimit="10"
   d="M60.373,11.799  c0.458,0,0.859,0.169,1.198,0.51c0.339,0.34,0.511,0.739,0.511,1.198v12.379c0,2.679-0.815,4.745-2.445,6.204  c-1.627,1.459-3.91,2.188-6.847,2.188c-1.141,0-2.278-0.09-3.417-0.27c-0.48-0.081-0.88-0.315-1.2-0.705s-0.479-0.834-0.479-1.333  v-1.23c0-0.418,0.165-0.743,0.494-0.973c0.33-0.23,0.704-0.296,1.124-0.195c0.9,0.241,1.958,0.359,3.179,0.359  c1.398,0,2.421-0.311,3.072-0.931c0.648-0.617,0.974-1.656,0.974-3.115v-0.75c0-0.02-0.012-0.029-0.03-0.029  c-0.04,0-0.062,0.01-0.062,0.029c-1.079,1.199-2.498,1.799-4.255,1.799c-1.739,0-3.173-0.684-4.302-2.053  c-1.129-1.368-1.693-3.231-1.693-5.591c0-2.477,0.544-4.395,1.633-5.753c1.089-1.36,2.542-2.038,4.361-2.038  c1.738,0,3.216,0.748,4.435,2.247c0.019,0.021,0.04,0.029,0.062,0.029c0.018,0,0.028-0.009,0.028-0.029v-0.24  c0.021-0.479,0.201-0.884,0.541-1.215c0.339-0.328,0.749-0.493,1.229-0.493H60.373z M56.537,20.64v-2.547  c0-0.699-0.231-1.274-0.691-1.724c-0.458-0.45-1.028-0.674-1.707-0.674c-1.599,0-2.397,1.199-2.397,3.596  c0,1.141,0.213,2,0.644,2.579c0.428,0.578,1.014,0.869,1.753,0.869c0.658,0,1.223-0.211,1.694-0.63  C56.301,21.689,56.537,21.2,56.537,20.64z"
   id="path239089" />
<path
   fill="#0C0C0C"
   stroke="#282828"
   stroke-width="0.25"
   stroke-miterlimit="10"
   d="M79.945,11.799  c0.459,0,0.858,0.169,1.199,0.51c0.339,0.34,0.509,0.739,0.509,1.198v12.169c0,0.461-0.17,0.86-0.509,1.199  c-0.341,0.34-0.74,0.509-1.199,0.509h-2.039c-0.479,0-0.89-0.164-1.229-0.494s-0.52-0.735-0.54-1.214v-0.239  c0-0.02-0.009-0.031-0.029-0.031c-0.041,0-0.06,0.012-0.06,0.031c-1.24,1.498-2.768,2.247-4.586,2.247  c-1.758,0-3.023-0.488-3.792-1.469c-0.769-0.977-1.153-2.687-1.153-5.125v-7.583c0-0.459,0.17-0.858,0.509-1.198  c0.339-0.341,0.739-0.51,1.199-0.51h2.128c0.459,0,0.859,0.169,1.199,0.51c0.339,0.34,0.509,0.739,0.509,1.198v7.282  c0,0.92,0.124,1.551,0.375,1.89c0.25,0.34,0.675,0.51,1.274,0.51c0.559,0,1.074-0.22,1.543-0.66  c0.469-0.438,0.705-0.918,0.705-1.438v-7.583c0-0.459,0.17-0.858,0.51-1.198c0.339-0.341,0.738-0.51,1.198-0.51H79.945z"
   id="path239091" />
<path
   fill="#0C0C0C"
   stroke="#282828"
   stroke-width="0.25"
   stroke-miterlimit="10"
   d="M92.982,17.344  c2.276,0.299,3.896,0.874,4.855,1.724c0.959,0.849,1.438,2.073,1.438,3.672c0,1.578-0.57,2.798-1.708,3.655  c-1.14,0.86-2.818,1.289-5.035,1.289c-1.639,0-3.288-0.159-4.946-0.48c-0.48-0.099-0.875-0.348-1.184-0.748  c-0.31-0.399-0.464-0.858-0.464-1.378v-0.78c0-0.42,0.169-0.749,0.509-0.989c0.34-0.239,0.71-0.309,1.109-0.209  c1.499,0.359,2.907,0.539,4.227,0.539c1.098,0,1.648-0.319,1.648-0.959c0-0.3-0.09-0.52-0.271-0.659  c-0.179-0.14-0.539-0.251-1.079-0.33c-2.218-0.359-3.821-0.978-4.811-1.858c-0.99-0.878-1.484-2.059-1.484-3.537  c0-1.518,0.584-2.697,1.753-3.536c1.169-0.84,2.933-1.258,5.291-1.258c1.558,0,2.997,0.1,4.315,0.299  c0.5,0.08,0.904,0.311,1.214,0.689c0.31,0.379,0.465,0.82,0.465,1.318v0.63c0,0.419-0.176,0.765-0.524,1.033  c-0.35,0.27-0.734,0.365-1.155,0.284c-1.218-0.239-2.468-0.358-3.747-0.358c-0.659,0-1.119,0.07-1.377,0.209  c-0.26,0.141-0.39,0.37-0.39,0.689C91.633,16.895,92.083,17.244,92.982,17.344z"
   id="path239093" />
<path
   fill="#0C0C0C"
   stroke="#282828"
   stroke-width="0.25"
   stroke-miterlimit="10"
   d="M113.843,12.399  c0.459,0,0.858,0.168,1.198,0.508c0.34,0.34,0.51,0.739,0.51,1.199v0.479c0,0.461-0.17,0.859-0.51,1.199  c-0.34,0.34-0.739,0.509-1.198,0.509h-2.668c-0.179,0-0.269,0.091-0.269,0.27v4.226c0,1.199,0.099,1.95,0.299,2.25  c0.199,0.299,0.648,0.449,1.349,0.449c0.28,0,0.62-0.03,1.019-0.09c0.42-0.061,0.805,0.046,1.154,0.314  c0.35,0.27,0.525,0.613,0.525,1.034v0.779c0,0.5-0.156,0.944-0.465,1.333c-0.31,0.39-0.704,0.615-1.184,0.675  c-0.7,0.1-1.549,0.149-2.547,0.149c-2.14,0-3.647-0.459-4.526-1.379c-0.879-0.917-1.318-2.558-1.318-4.914v-4.827  c0-0.179-0.09-0.27-0.271-0.27h-1.168c-0.46,0-0.859-0.169-1.199-0.509s-0.51-0.738-0.51-1.199v-0.479c0-0.46,0.17-0.859,0.51-1.199  s0.739-0.508,1.199-0.508h1.168c0.18,0,0.271-0.091,0.271-0.271V8.411c0-0.458,0.169-0.857,0.509-1.199  c0.339-0.338,0.738-0.509,1.198-0.509h2.279c0.459,0,0.858,0.171,1.199,0.509c0.339,0.342,0.51,0.741,0.51,1.199v3.718  c0,0.18,0.09,0.271,0.269,0.271H113.843z"
   id="path239095" />
<path
   fill="#0C0C0C"
   stroke="#282828"
   stroke-width="0.25"
   stroke-miterlimit="10"
   d="M13.971,34.784  c7.661,0,11.493,2.762,11.493,8.283c0,2.996-0.861,5.268-2.585,6.81c-1.725,1.545-4.243,2.316-7.555,2.316  c-0.497,0-1.128-0.022-1.894-0.067c-0.204,0-0.304,0.09-0.304,0.27v5.477c0,0.519-0.192,0.971-0.575,1.352  c-0.383,0.384-0.833,0.575-1.352,0.575H8.46c-0.519,0-0.969-0.191-1.352-0.575c-0.383-0.381-0.574-0.833-0.574-1.352V37.22  c0-0.541,0.179-1.026,0.54-1.456c0.36-0.427,0.812-0.664,1.353-0.708C10.342,34.873,12.19,34.784,13.971,34.784z M14.647,47.291  c1.463,0,2.59-0.338,3.38-1.013c0.788-0.678,1.184-1.634,1.184-2.873c0-2.367-1.521-3.549-4.563-3.549  c-0.429,0-0.846,0.032-1.252,0.101c-0.179,0.045-0.27,0.168-0.27,0.37v6.56c0,0.18,0.09,0.293,0.27,0.337  C13.937,47.269,14.353,47.291,14.647,47.291z"
   id="path239097" />
<path
   fill="#0C0C0C"
   stroke="#282828"
   stroke-width="0.25"
   stroke-miterlimit="10"
   d="M36.382,41.885  c5.724,0,8.597,3.019,8.62,9.059c0,0.539-0.203,0.995-0.609,1.369c-0.405,0.371-0.891,0.557-1.454,0.557h-8.856  c-0.203,0-0.281,0.102-0.236,0.304c0.203,0.946,0.647,1.612,1.335,1.994c0.687,0.384,1.763,0.576,3.228,0.576  c0.923,0,2.049-0.136,3.38-0.404c0.473-0.113,0.901-0.02,1.285,0.284c0.382,0.306,0.574,0.704,0.574,1.201v0.541  c0,0.563-0.175,1.076-0.524,1.538c-0.35,0.463-0.795,0.739-1.335,0.827c-1.375,0.271-2.839,0.405-4.395,0.405  c-3.2,0-5.661-0.781-7.386-2.349c-1.724-1.564-2.585-3.825-2.585-6.776c0-2.93,0.766-5.185,2.298-6.762  C31.256,42.675,33.474,41.885,36.382,41.885z M38.782,49.319c0.202,0,0.304-0.103,0.304-0.303c-0.023-1.038-0.243-1.781-0.66-2.232  c-0.417-0.45-1.042-0.677-1.875-0.677c-0.879,0-1.539,0.22-1.978,0.659c-0.438,0.441-0.716,1.201-0.828,2.281  c0,0.183,0.09,0.271,0.271,0.271H38.782z"
   id="path239099" />
<path
   fill="#0C0C0C"
   stroke="#282828"
   stroke-width="0.25"
   stroke-miterlimit="10"
   d="M60.652,41.885  c2.05,0,3.521,0.586,4.411,1.757c0.889,1.172,1.336,3.178,1.336,6.015v8.216c0,0.519-0.193,0.971-0.576,1.352  c-0.384,0.384-0.834,0.575-1.352,0.575H62.07c-0.518,0-0.968-0.191-1.352-0.575c-0.383-0.381-0.573-0.833-0.573-1.352v-8.216  c0-1.034-0.147-1.744-0.441-2.129c-0.293-0.382-0.82-0.574-1.587-0.574c-0.631,0-1.211,0.248-1.743,0.743  c-0.528,0.498-0.792,1.037-0.792,1.623v8.553c0,0.519-0.194,0.971-0.576,1.352c-0.382,0.384-0.834,0.575-1.353,0.575h-2.568  c-0.519,0-0.969-0.191-1.352-0.575c-0.385-0.381-0.574-0.833-0.574-1.352V44.148c0-0.519,0.189-0.967,0.574-1.352  c0.383-0.386,0.833-0.574,1.352-0.574h2.299c0.541,0,1.001,0.185,1.386,0.556c0.382,0.372,0.585,0.829,0.609,1.37v0.271  c0,0.021,0.009,0.033,0.034,0.033c0.044,0,0.065-0.012,0.065-0.033C56.876,42.73,58.601,41.885,60.652,41.885z"
   id="path239101" />
<path
   fill="#0C0C0C"
   stroke="#282828"
   stroke-width="0.25"
   stroke-miterlimit="10"
   d="M86.375,42.223  c0.517,0,0.968,0.188,1.352,0.574c0.384,0.385,0.575,0.833,0.575,1.352v13.96c0,3.021-0.919,5.352-2.756,6.997  c-1.836,1.646-4.41,2.467-7.724,2.467c-1.285,0-2.568-0.1-3.854-0.304c-0.539-0.091-0.991-0.354-1.352-0.794  c-0.361-0.439-0.541-0.94-0.541-1.503v-1.387c0-0.473,0.188-0.841,0.558-1.099c0.373-0.26,0.795-0.334,1.267-0.22  c1.014,0.271,2.209,0.404,3.583,0.404c1.577,0,2.733-0.348,3.466-1.046c0.732-0.701,1.098-1.87,1.098-3.517v-0.843  c0-0.026-0.012-0.037-0.035-0.037c-0.044,0-0.067,0.011-0.067,0.037c-1.217,1.348-2.818,2.025-4.8,2.025  c-1.96,0-3.578-0.771-4.851-2.314c-1.272-1.543-1.91-3.646-1.91-6.306c0-2.793,0.615-4.956,1.842-6.488  c1.229-1.534,2.868-2.298,4.918-2.298c1.961,0,3.628,0.846,5.003,2.535c0.021,0.021,0.045,0.033,0.067,0.033  c0.022,0,0.033-0.012,0.033-0.033v-0.271c0.022-0.541,0.226-0.998,0.608-1.37c0.384-0.371,0.845-0.556,1.387-0.556H86.375z   M82.049,52.193v-2.874c0-0.787-0.261-1.437-0.779-1.943c-0.519-0.506-1.161-0.761-1.925-0.761c-1.804,0-2.705,1.353-2.705,4.056  c0,1.286,0.242,2.256,0.727,2.907c0.485,0.655,1.143,0.981,1.979,0.981c0.743,0,1.38-0.235,1.909-0.711  C81.783,53.377,82.049,52.823,82.049,52.193z"
   id="path239103" />
<path
   fill="#0C0C0C"
   stroke="#282828"
   stroke-width="0.25"
   stroke-miterlimit="10"
   d="M108.449,42.223  c0.517,0,0.968,0.188,1.353,0.574c0.382,0.385,0.574,0.833,0.574,1.352v13.724c0,0.519-0.192,0.971-0.574,1.352  c-0.385,0.384-0.835,0.575-1.353,0.575h-2.299c-0.542,0-1.004-0.187-1.387-0.557c-0.383-0.373-0.586-0.83-0.609-1.37v-0.27  c0-0.023-0.01-0.035-0.032-0.035c-0.046,0-0.067,0.012-0.067,0.035c-1.398,1.688-3.122,2.533-5.172,2.533  c-1.983,0-3.41-0.549-4.277-1.655c-0.867-1.102-1.3-3.03-1.3-5.779v-8.553c0-0.519,0.191-0.967,0.574-1.352  c0.383-0.386,0.833-0.574,1.353-0.574h2.4c0.518,0,0.968,0.188,1.352,0.574c0.383,0.385,0.575,0.833,0.575,1.352v8.215  c0,1.034,0.14,1.746,0.422,2.129c0.281,0.383,0.76,0.573,1.436,0.573c0.63,0,1.211-0.248,1.741-0.741  c0.53-0.497,0.794-1.038,0.794-1.623v-8.553c0-0.519,0.192-0.967,0.575-1.352c0.383-0.386,0.833-0.574,1.352-0.574H108.449z"
   id="path239105" />
<path
   fill="#0C0C0C"
   stroke="#282828"
   stroke-width="0.25"
   stroke-miterlimit="10"
   d="M121.057,34.446  c0.517,0,0.968,0.192,1.352,0.573c0.382,0.386,0.575,0.836,0.575,1.354v0.878c0,0.521-0.193,0.973-0.575,1.354  c-0.384,0.383-0.835,0.573-1.352,0.573h-2.908c-0.519,0-0.969-0.19-1.352-0.573c-0.384-0.381-0.574-0.833-0.574-1.354v-0.878  c0-0.518,0.19-0.968,0.574-1.354c0.382-0.381,0.833-0.573,1.352-0.573H121.057z M121.057,42.223c0.517,0,0.968,0.188,1.352,0.574  c0.382,0.385,0.575,0.833,0.575,1.352v13.724c0,0.519-0.193,0.971-0.575,1.352c-0.384,0.384-0.835,0.575-1.352,0.575h-2.908  c-0.519,0-0.969-0.191-1.352-0.575c-0.384-0.381-0.574-0.833-0.574-1.352V44.148c0-0.519,0.19-0.967,0.574-1.352  c0.382-0.386,0.833-0.574,1.352-0.574H121.057z"
   id="path239107" />
<path
   fill="#0C0C0C"
   stroke="#282828"
   stroke-width="0.25"
   stroke-miterlimit="10"
   d="M140.325,41.885  c2.05,0,3.52,0.586,4.411,1.757c0.889,1.172,1.335,3.178,1.335,6.015v8.216c0,0.519-0.192,0.971-0.575,1.352  c-0.384,0.384-0.835,0.575-1.352,0.575h-2.4c-0.519,0-0.969-0.191-1.352-0.575c-0.383-0.381-0.575-0.833-0.575-1.352v-8.216  c0-1.034-0.147-1.744-0.439-2.129c-0.293-0.382-0.823-0.574-1.588-0.574c-0.631,0-1.213,0.248-1.742,0.743  c-0.53,0.498-0.793,1.037-0.793,1.623v8.553c0,0.519-0.192,0.971-0.575,1.352c-0.383,0.384-0.833,0.575-1.352,0.575h-2.569  c-0.519,0-0.97-0.191-1.353-0.575c-0.382-0.381-0.575-0.833-0.575-1.352V44.148c0-0.519,0.192-0.967,0.575-1.352  c0.383-0.386,0.833-0.574,1.353-0.574h2.299c0.541,0,1.003,0.185,1.385,0.556c0.383,0.372,0.586,0.829,0.608,1.37v0.271  c0,0.021,0.012,0.033,0.034,0.033c0.045,0,0.067-0.012,0.067-0.033C136.549,42.73,138.273,41.885,140.325,41.885z"
   id="path239109" />
<g
   id="g226103"
   transform="matrix(0.94332628,0,0,1.034165,-8.8609845,9.8416749)"><text
     xml:space="preserve"
     style="font-size:29.362px;line-height:0.1;font-family:sans-serif;stroke-width:0.917561"
     x="10.522468"
     y="81.597839"
     id="text208939"
     transform="scale(1.0003007,0.99969936)"><tspan
       sodipodi:role="line"
       id="tspan208937"
       x="10.522468"
       y="81.597839"
       style="stroke-width:0.917561">2023</tspan></text></g></svg>
